<?xml version="1.0" encoding="utf-8"?>
<!-- Generator: Adobe Illustrator 18.0.0, SVG Export Plug-In . SVG Version: 6.00 Build 0)  -->
<!DOCTYPE svg PUBLIC "-//W3C//DTD SVG 1.0//EN" "http://www.w3.org/TR/2001/REC-SVG-20010904/DTD/svg10.dtd">
<svg version="1.0" id="Layer_1" xmlns="http://www.w3.org/2000/svg" xmlns:xlink="http://www.w3.org/1999/xlink" x="0px" y="0px"
	 viewBox="0 0 1080 1080" enable-background="new 0 0 1080 1080" xml:space="preserve">
<g>
	<defs>
		<rect id="SVGID_1_" width="1080" height="1080"/>
	</defs>
	<clipPath id="SVGID_2_">
		<use xlink:href="#SVGID_1_"  overflow="visible"/>
	</clipPath>
	<g clip-path="url(#SVGID_2_)">
		<defs>
			<rect id="SVGID_3_" width="1080" height="1080"/>
		</defs>
		<clipPath id="SVGID_4_">
			<use xlink:href="#SVGID_3_"  overflow="visible"/>
		</clipPath>
		<path clip-path="url(#SVGID_4_)" fill="#A5A5A5" d="M1065,540c0,289.9-235.1,525-525,525c-290,0-525-235.1-525-525
			C15,250,250,15,540,15C829.9,15,1065,250,1065,540"/>
		<path clip-path="url(#SVGID_4_)" d="M540,1070c-71.5,0-141-14-206.3-41.7c-63.1-26.7-119.8-64.9-168.5-113.6
			c-48.7-48.7-86.9-105.4-113.6-168.5C24,681,10,611.5,10,540s14-141,41.7-206.3c26.7-63.1,64.9-119.8,113.6-168.5
			c48.7-48.7,105.4-86.9,168.5-113.6C399,24,468.5,10,540,10s141,14,206.3,41.7c63.1,26.7,119.8,64.9,168.5,113.6
			c48.7,48.7,86.9,105.4,113.6,168.5C1056,399,1070,468.5,1070,540s-14,141-41.7,206.3c-26.7,63.1-64.9,119.8-113.6,168.5
			c-48.7,48.7-105.4,86.9-168.5,113.6C681,1056,611.5,1070,540,1070 M540,20C253.3,20,20,253.3,20,540s233.3,520,520,520
			s520-233.3,520-520S826.7,20,540,20"/>
		<g opacity="0.15" clip-path="url(#SVGID_4_)">
			<g>
				<defs>
					<rect id="SVGID_5_" x="225.4" y="129.6" width="629.2" height="820.8"/>
				</defs>
				<clipPath id="SVGID_6_">
					<use xlink:href="#SVGID_5_"  overflow="visible"/>
				</clipPath>
				<polygon clip-path="url(#SVGID_6_)" points="766.6,576.7 647.5,613.4 610.5,787.9 665.8,630.7 688.6,645 				"/>
				<polygon clip-path="url(#SVGID_6_)" points="319.2,576.7 438.4,613.4 475.3,787.9 420.1,630.7 397.3,645 				"/>
			</g>
		</g>
		<polygon clip-path="url(#SVGID_4_)" points="705.7,1011.8 704.6,1012.2 699.3,996.9 700.4,996.6 		"/>
		<polygon clip-path="url(#SVGID_4_)" points="721,1006.1 719.1,1006.8 717.6,1002.8 719.4,1002 		"/>
		<polygon clip-path="url(#SVGID_4_)" points="724.6,1004.7 722.1,1005.7 660.2,847.4 661.8,846.7 		"/>
		<polygon clip-path="url(#SVGID_4_)" points="742.4,997.2 738.6,998.9 690.8,888.6 693.7,887.2 		"/>
		<polygon clip-path="url(#SVGID_4_)" points="743.5,996.7 741.8,997.5 723.8,956.7 725.3,956 		"/>
		<path clip-path="url(#SVGID_4_)" d="M736.3,1000c0,0-0.8,0.3-1.6,0.7c-0.8,0.3-1.6,0.6-1.6,0.6l-6.1-14.5c0,0,0.8-0.3,1.5-0.6
			c0.8-0.3,1.5-0.7,1.5-0.7L736.3,1000z"/>
		<polygon clip-path="url(#SVGID_4_)" points="731.9,1001.8 727.7,1003.5 706.6,951.6 710.4,950.1 		"/>
		<polygon clip-path="url(#SVGID_4_)" points="717.2,1007.6 716.7,1007.8 670.2,884.7 670.6,884.5 		"/>
		<polygon clip-path="url(#SVGID_4_)" points="761,988.6 760.2,988.9 726.6,920.5 727.2,920.1 		"/>
		<polygon clip-path="url(#SVGID_4_)" points="755.5,991.3 755,991.5 744.8,969.9 745.2,969.7 		"/>
		<polygon clip-path="url(#SVGID_4_)" points="717.2,1007.6 716.3,1008 692,943.5 692.8,943.1 		"/>
		<polygon clip-path="url(#SVGID_4_)" points="695.7,1015.2 694.5,1015.6 669,937.3 670.1,936.9 		"/>
		<polygon clip-path="url(#SVGID_4_)" points="726,1004.1 724.4,1004.8 700.6,944.9 702,944.4 		"/>
		<polygon clip-path="url(#SVGID_4_)" points="732.5,1001.6 732,1001.7 706.9,941.4 707.3,941.3 		"/>
		<polygon clip-path="url(#SVGID_4_)" points="720,1006.5 719.2,1006.8 698.3,952.2 698.9,952 		"/>
		<polygon clip-path="url(#SVGID_4_)" points="787.8,974.2 786.1,975.2 746.3,905.1 747.8,904.3 		"/>
		<polygon clip-path="url(#SVGID_4_)" points="735.3,1000.4 733.3,1001.2 696.1,912.5 697.6,911.8 		"/>
		<polygon clip-path="url(#SVGID_4_)" points="766.2,985.9 764.8,986.6 733.4,924.3 734.6,923.7 		"/>
		<polygon clip-path="url(#SVGID_4_)" points="772.1,982.9 771.1,983.4 753.8,950.3 754.7,949.8 		"/>
		<polygon clip-path="url(#SVGID_4_)" points="745.5,995.8 744.2,996.4 686.5,867.7 687.5,867.2 		"/>
		<polygon clip-path="url(#SVGID_4_)" points="794.5,970.4 793.9,970.7 766.7,924.6 767.3,924.3 		"/>
		<polygon clip-path="url(#SVGID_4_)" points="763.2,987.4 758.5,989.8 712.4,895.2 716.2,893.3 		"/>
		<polygon clip-path="url(#SVGID_4_)" points="748.8,994.3 743.7,996.6 704.3,908.2 708.3,906.4 		"/>
		<polygon clip-path="url(#SVGID_4_)" points="787.9,974.2 785.2,975.7 769.9,948.6 772.5,947.1 		"/>
		<polygon clip-path="url(#SVGID_4_)" points="831.8,945.9 830.4,947 802.8,908.4 804.1,907.4 		"/>
		<path clip-path="url(#SVGID_4_)" d="M781,978.1c0,0-1.8,1.1-3.7,2.1c-1.9,1-3.8,2-3.8,2l-3.6-6.8c0,0,1.9-1,3.7-1.9
			c1.9-1,3.7-2,3.7-2L781,978.1z"/>
		<polygon clip-path="url(#SVGID_4_)" points="853.5,929.5 853.3,929.6 785.7,845.6 785.8,845.5 		"/>
		<polygon clip-path="url(#SVGID_4_)" points="795.2,969.9 793.7,970.9 789.2,963.3 790.7,962.4 		"/>
		<polygon clip-path="url(#SVGID_4_)" points="824,951.5 823.2,952.1 819.5,946.7 820.3,946.1 		"/>
		<polygon clip-path="url(#SVGID_4_)" points="828.6,948.2 826.1,950 789.7,897.8 791.8,896.2 		"/>
		<polygon clip-path="url(#SVGID_4_)" points="830.7,946.7 829.2,947.8 804.2,912.6 805.5,911.6 		"/>
		<polygon clip-path="url(#SVGID_4_)" points="834,944.4 831.9,945.9 813.6,920.5 815.6,919.1 		"/>
		<polygon clip-path="url(#SVGID_4_)" points="816.2,956.8 808,962.1 725,831.6 730.7,827.9 		"/>
		<polygon clip-path="url(#SVGID_4_)" points="860.3,923.9 859.9,924.3 765.4,811 765.7,810.7 		"/>
		<polygon clip-path="url(#SVGID_4_)" points="875.1,911.1 871,914.7 804,838.9 807.3,836 		"/>
		<polygon clip-path="url(#SVGID_4_)" points="860.7,923.6 860,924.1 758.8,802.8 759.3,802.4 		"/>
		<polygon clip-path="url(#SVGID_4_)" points="855.3,928 855,928.3 848.4,920.1 848.6,919.9 		"/>
		<polygon clip-path="url(#SVGID_4_)" points="856.6,927 853.8,929.2 810.5,875.5 812.9,873.7 		"/>
		<polygon clip-path="url(#SVGID_4_)" points="822.9,952.3 820.8,953.8 802,926.1 803.9,924.7 		"/>
		<polygon clip-path="url(#SVGID_4_)" points="854.9,928.3 853.3,929.6 830.5,901.2 831.9,900 		"/>
		<polygon clip-path="url(#SVGID_4_)" points="881.4,905.2 879.5,907 836.2,860.1 837.8,858.6 		"/>
		<polygon clip-path="url(#SVGID_4_)" points="829.7,947.5 824.9,950.8 772.1,874.7 775.9,872 		"/>
		<polygon clip-path="url(#SVGID_4_)" points="859.6,924.5 858.4,925.5 842.9,906.8 844,905.8 		"/>
		<polygon clip-path="url(#SVGID_4_)" points="840.2,939.9 838.5,941.2 821.4,918.2 823,917 		"/>
		<path clip-path="url(#SVGID_4_)" d="M895.3,891.7c0,0-0.7,0.7-1.4,1.5c-0.7,0.7-1.4,1.4-1.4,1.4l-40-40.2c0,0,0.6-0.6,1.3-1.3
			c0.6-0.6,1.2-1.3,1.2-1.3L895.3,891.7z"/>
		<polygon clip-path="url(#SVGID_4_)" points="864.9,919.9 863,921.6 850.8,907.1 852.6,905.5 		"/>
		<polygon clip-path="url(#SVGID_4_)" points="878.4,908.1 876.3,910 820.7,848.9 822.5,847.3 		"/>
		<polygon clip-path="url(#SVGID_4_)" points="903.6,883.1 900.3,886.5 880.2,867.1 883.3,863.9 		"/>
		<polygon clip-path="url(#SVGID_4_)" points="901.4,885.4 898.8,888.1 867.9,858.2 870.3,855.7 		"/>
		<polygon clip-path="url(#SVGID_4_)" points="847.2,934.4 846.7,934.8 827.2,909.9 827.8,909.4 		"/>
		<polygon clip-path="url(#SVGID_4_)" points="900.6,886.2 899.9,886.9 805.6,796 806.1,795.5 		"/>
		<polygon clip-path="url(#SVGID_4_)" points="883.4,903.3 881.6,905 868.3,890.7 870,889.1 		"/>
		<polygon clip-path="url(#SVGID_4_)" points="914.1,871.6 913.4,872.4 896.2,857 896.8,856.3 		"/>
		<polygon clip-path="url(#SVGID_4_)" points="882,904.7 880.1,906.5 797.9,818 799.4,816.6 		"/>
		<polygon clip-path="url(#SVGID_4_)" points="908.6,877.8 904.5,882.2 811,794.4 814.1,791.1 		"/>
		<polygon clip-path="url(#SVGID_4_)" points="871.9,913.9 870.2,915.4 776.8,809.3 778.1,808.3 		"/>
		<polygon clip-path="url(#SVGID_4_)" points="914.1,871.6 912.9,873.1 867.9,832.9 869,831.6 		"/>
		<polygon clip-path="url(#SVGID_4_)" points="888.3,898.6 886.6,900.3 847.6,859.8 849.2,858.3 		"/>
		<polygon clip-path="url(#SVGID_4_)" points="925.7,858.2 920.8,863.9 748.3,717 751,714 		"/>
		<polygon clip-path="url(#SVGID_4_)" points="902.3,884.5 901.6,885.2 874,858.8 874.6,858.1 		"/>
		<polygon clip-path="url(#SVGID_4_)" points="925.1,858.9 923.4,860.8 887.1,830.4 888.6,828.6 		"/>
		<polygon clip-path="url(#SVGID_4_)" points="936.8,844.2 936.4,844.6 859.9,785.8 860.2,785.4 		"/>
		<polygon clip-path="url(#SVGID_4_)" points="939.7,840.4 938.7,841.7 860.4,782.3 861.2,781.3 		"/>
		<polygon clip-path="url(#SVGID_4_)" points="940.3,839.6 937.1,843.8 885,803.9 887.8,800.2 		"/>
		<polygon clip-path="url(#SVGID_4_)" points="909.6,876.8 909,877.4 746.3,728.6 746.6,728.2 		"/>
		<polygon clip-path="url(#SVGID_4_)" points="918.3,866.7 917,868.3 880.3,836.3 881.5,834.9 		"/>
		<polygon clip-path="url(#SVGID_4_)" points="940.6,839.3 940.2,839.8 884.7,798.3 885.1,797.8 		"/>
		<path clip-path="url(#SVGID_4_)" d="M941.3,838.2c0,0-1.6,2.1-3.2,4.2c-1.6,2.1-3.3,4.2-3.3,4.2L881,804.8c0,0,1.4-1.8,2.8-3.6
			c1.4-1.8,2.8-3.6,2.8-3.6L941.3,838.2z"/>
		<polygon clip-path="url(#SVGID_4_)" points="960.6,810.3 960.1,811 834.5,729.8 834.8,729.4 		"/>
		<polygon clip-path="url(#SVGID_4_)" points="965.8,802.1 965.2,803 913.4,771 914,770.1 		"/>
		<polygon clip-path="url(#SVGID_4_)" points="942.9,836 942.3,836.8 893.8,801 894.3,800.2 		"/>
		<path clip-path="url(#SVGID_4_)" d="M968.5,797.7c0,0-0.6,1-1.1,1.9c-0.6,1-1.2,1.9-1.2,1.9l-14.8-9.1c0,0,0.6-0.9,1.2-1.8
			c0.6-0.9,1.1-1.9,1.1-1.9L968.5,797.7z"/>
		<polygon clip-path="url(#SVGID_4_)" points="954.5,819.7 953.2,821.6 884.4,774.6 885.5,773.1 		"/>
		<polygon clip-path="url(#SVGID_4_)" points="939.5,840.7 938.1,842.5 899.3,813 900.6,811.4 		"/>
		<polygon clip-path="url(#SVGID_4_)" points="959.5,811.9 958.7,813.2 942.1,802.3 942.9,801.1 		"/>
		<polygon clip-path="url(#SVGID_4_)" points="974.2,787.9 973.5,789 915,755.3 915.6,754.3 		"/>
		<polygon clip-path="url(#SVGID_4_)" points="934.6,846.9 931.9,850.3 889.8,817 892.2,813.9 		"/>
		<polygon clip-path="url(#SVGID_4_)" points="976.5,783.8 975.1,786.2 825.3,701.3 826.2,699.7 		"/>
		<polygon clip-path="url(#SVGID_4_)" points="960.8,809.9 959.1,812.5 834.1,731.1 835.2,729.3 		"/>
		<polygon clip-path="url(#SVGID_4_)" points="951.6,823.8 951.1,824.5 916,800.2 916.4,799.6 		"/>
		<polygon clip-path="url(#SVGID_4_)" points="950.2,825.8 949.8,826.4 906.5,796.1 906.9,795.6 		"/>
		<polygon clip-path="url(#SVGID_4_)" points="962.6,807.1 961.6,808.8 905.7,773.1 906.6,771.7 		"/>
		<polygon clip-path="url(#SVGID_4_)" points="976.3,784.2 975.6,785.3 936.8,763.4 937.4,762.4 		"/>
		<polygon clip-path="url(#SVGID_4_)" points="991.2,755.6 990.5,757.1 942.1,733.8 942.8,732.4 		"/>
		<polygon clip-path="url(#SVGID_4_)" points="953.4,821.3 950.1,825.9 883.6,779.5 886.4,775.6 		"/>
		<polygon clip-path="url(#SVGID_4_)" points="955.7,817.8 955.6,818 902.9,782.8 903,782.6 		"/>
		<polygon clip-path="url(#SVGID_4_)" points="962.2,807.7 961.2,809.3 915,779.7 915.9,778.3 		"/>
		<polygon clip-path="url(#SVGID_4_)" points="982.8,772.2 982.6,772.6 889.6,723.7 889.8,723.3 		"/>
		<polygon clip-path="url(#SVGID_4_)" points="988,762.1 987.4,763.2 918.3,728.6 918.7,727.7 		"/>
		<polygon clip-path="url(#SVGID_4_)" points="999.2,737.9 997.4,741.9 933.8,713.7 935.3,710.4 		"/>
		<polygon clip-path="url(#SVGID_4_)" points="968.8,797.2 967.7,799.1 866.9,737.9 867.7,736.5 		"/>
		<polygon clip-path="url(#SVGID_4_)" points="1007.3,717.8 1006.8,719.2 933.8,691.2 934.3,690 		"/>
		<polygon clip-path="url(#SVGID_4_)" points="1004.6,724.9 1004.3,725.4 775.4,634 775.5,633.7 		"/>
		<polygon clip-path="url(#SVGID_4_)" points="975,786.5 974.3,787.6 830.2,705.3 830.6,704.6 		"/>
		<polygon clip-path="url(#SVGID_4_)" points="997.2,742.4 996.2,744.7 860.9,684 861.6,682.3 		"/>
		<polygon clip-path="url(#SVGID_4_)" points="1011.5,706.5 1011,707.8 984.6,698.4 985.1,697.1 		"/>
		<polygon clip-path="url(#SVGID_4_)" points="995.8,745.5 995.4,746.4 913.7,709.4 914,708.6 		"/>
		<polygon clip-path="url(#SVGID_4_)" points="990.2,757.6 988.6,760.8 920.2,727.1 921.6,724.4 		"/>
		<polygon clip-path="url(#SVGID_4_)" points="1000.2,735.8 999.3,737.8 924.3,705.5 925.1,703.8 		"/>
		<polygon clip-path="url(#SVGID_4_)" points="1000.8,734.3 999.9,736.4 876.4,683.7 877.1,682.1 		"/>
		<polygon clip-path="url(#SVGID_4_)" points="991.3,755.5 990.9,756.2 821.2,674.8 821.4,674.3 		"/>
		<polygon clip-path="url(#SVGID_4_)" points="1018.7,684.6 1018.1,686.5 931.9,660.2 932.4,658.6 		"/>
		<polygon clip-path="url(#SVGID_4_)" points="1011.2,707.4 1010.7,708.7 981.2,698.1 981.6,696.9 		"/>
		<polygon clip-path="url(#SVGID_4_)" points="1009.2,713.1 1008.8,714.2 893,671.2 893.4,670.4 		"/>
		<polygon clip-path="url(#SVGID_4_)" points="1017.8,687.8 1017.7,688 948.6,666.7 948.7,666.4 		"/>
		<polygon clip-path="url(#SVGID_4_)" points="1021.5,674.7 1021.2,675.6 972.6,661.9 972.8,661.1 		"/>
		<polygon clip-path="url(#SVGID_4_)" points="1022.3,671.8 1021.5,674.8 919.8,646.3 920.5,644 		"/>
		<polygon clip-path="url(#SVGID_4_)" points="1027.9,649.3 1027.8,649.6 905.2,622.1 905.3,621.9 		"/>
		<polygon clip-path="url(#SVGID_4_)" points="1016.7,691.2 1016.6,691.4 951,670.5 951,670.4 		"/>
		<polygon clip-path="url(#SVGID_4_)" points="1012.2,704.5 1012.1,704.7 999.3,700.3 999.4,700 		"/>
		<polygon clip-path="url(#SVGID_4_)" points="1012.6,703.1 1012,705 970.8,690.6 971.4,688.9 		"/>
		<polygon clip-path="url(#SVGID_4_)" points="1013,702.1 1012.7,703.1 976.8,690.7 977.1,689.9 		"/>
		<polygon clip-path="url(#SVGID_4_)" points="1027.2,652.1 1026.9,653.4 928.2,630.5 928.4,629.4 		"/>
		<polygon clip-path="url(#SVGID_4_)" points="1026.7,654.5 1026.5,655.2 943.1,635.5 943.2,634.9 		"/>
		<path clip-path="url(#SVGID_4_)" d="M1017.8,687.5c0,0-0.4,1.5-0.9,2.9c-0.5,1.4-1,2.9-1,2.9l-76.3-24.6c0,0,0.4-1.2,0.8-2.4
			c0.4-1.2,0.8-2.4,0.8-2.4L1017.8,687.5z"/>
		<polygon clip-path="url(#SVGID_4_)" points="1019.6,681.4 1018.9,683.7 909.6,650.9 910.1,649.1 		"/>
		<polygon clip-path="url(#SVGID_4_)" points="1029.9,640.3 1029.1,643.8 993.4,636.3 994.1,633 		"/>
		<polygon clip-path="url(#SVGID_4_)" points="1035.1,609.2 1034.8,612 968.2,602.4 968.5,600 		"/>
		<polygon clip-path="url(#SVGID_4_)" points="1029.4,642.8 1029,644.5 954.6,628.7 954.9,627.2 		"/>
		<polygon clip-path="url(#SVGID_4_)" points="1037.9,584.5 1037.6,588.9 946.4,580 946.7,576.4 		"/>
		<polygon clip-path="url(#SVGID_4_)" points="1024.7,663 1024.2,665.1 939.3,643.2 939.7,641.5 		"/>
		<polygon clip-path="url(#SVGID_4_)" points="1036.8,596.5 1036.4,599.6 1031.7,599 1032.1,596 		"/>
		<polygon clip-path="url(#SVGID_4_)" points="1028.4,646.9 1028.1,648.5 951.1,631.4 951.4,630.1 		"/>
		<polygon clip-path="url(#SVGID_4_)" points="1028.2,648.1 1027.5,650.8 921.8,626.8 922.3,624.7 		"/>
		<polygon clip-path="url(#SVGID_4_)" points="1034.4,614.7 1034.1,616.9 900.8,596.3 901,594.7 		"/>
		<polygon clip-path="url(#SVGID_4_)" points="1037,594.4 1036.8,596.2 1013.5,593.6 1013.7,591.9 		"/>
		<polygon clip-path="url(#SVGID_4_)" points="1037.9,585.5 1037.6,588.4 803.6,565.9 803.7,564.3 		"/>
		<polygon clip-path="url(#SVGID_4_)" points="1038.1,582 1037.8,585.8 970.8,579.7 971.1,576.4 		"/>
		<polygon clip-path="url(#SVGID_4_)" points="1033.9,617.9 1033.1,622.7 939.9,607.1 940.6,603.3 		"/>
		<polygon clip-path="url(#SVGID_4_)" points="1035.5,606.2 1035.5,606.7 1011.8,603.6 1011.8,603.1 		"/>
		<polygon clip-path="url(#SVGID_4_)" points="1035.6,605.9 1035.5,606.5 908.6,589.6 908.6,589.1 		"/>
		<polygon clip-path="url(#SVGID_4_)" points="1034.7,612.4 1034.5,614 900.2,594.1 900.4,592.9 		"/>
		<polygon clip-path="url(#SVGID_4_)" points="1034.9,610.8 1034.4,615.2 1017.9,612.7 1018.4,608.5 		"/>
		<polygon clip-path="url(#SVGID_4_)" points="142.6,843.4 141.9,842.5 154.7,832.8 155.4,833.7 		"/>
		<polygon clip-path="url(#SVGID_4_)" points="152.7,856.2 151.4,854.7 154.8,851.9 156,853.5 		"/>
		<polygon clip-path="url(#SVGID_4_)" points="155.1,859.2 153.4,857.2 284.8,749.3 285.9,750.7 		"/>
		<polygon clip-path="url(#SVGID_4_)" points="167.7,873.8 165,870.6 255.2,791 257.3,793.5 		"/>
		<polygon clip-path="url(#SVGID_4_)" points="168.5,874.6 167.3,873.3 200.5,843.6 201.6,844.8 		"/>
		<polygon clip-path="url(#SVGID_4_)" points="163.3,868.7 161.1,866.1 173,855.9 175.2,858.4 		"/>
		<polygon clip-path="url(#SVGID_4_)" points="160.2,865.1 157.3,861.7 200.1,825.7 202.7,828.7 		"/>
		<polygon clip-path="url(#SVGID_4_)" points="150.2,853.1 149.8,852.6 252.5,770.3 252.7,770.6 		"/>
		<polygon clip-path="url(#SVGID_4_)" points="181.7,888.7 181.1,888.1 235.9,834.9 236.4,835.5 		"/>
		<polygon clip-path="url(#SVGID_4_)" points="177.5,884.3 177.1,883.9 194.5,867.5 194.8,867.8 		"/>
		<polygon clip-path="url(#SVGID_4_)" points="150.2,853 149.5,852.3 203.3,809.2 203.9,809.9 		"/>
		<polygon clip-path="url(#SVGID_4_)" points="136.3,835 135.5,834 202.1,785.5 202.8,786.4 		"/>
		<polygon clip-path="url(#SVGID_4_)" points="156.1,860.3 155,859.1 204.6,817.9 205.5,819 		"/>
		<polygon clip-path="url(#SVGID_4_)" points="160.6,865.6 160.3,865.3 209.9,822.8 210.2,823.1 		"/>
		<polygon clip-path="url(#SVGID_4_)" points="152,855.4 151.5,854.7 196.9,817.9 197.3,818.5 		"/>
		<polygon clip-path="url(#SVGID_4_)" points="203.4,909.8 202,908.5 256.5,849.1 257.7,850.2 		"/>
		<polygon clip-path="url(#SVGID_4_)" points="162.6,867.9 161.2,866.3 234.1,803.5 235.2,804.7 		"/>
		<polygon clip-path="url(#SVGID_4_)" points="185.7,892.9 184.7,891.8 234.2,842.7 235.1,843.6 		"/>
		<polygon clip-path="url(#SVGID_4_)" points="190.5,897.5 189.6,896.7 215.8,870 216.6,870.8 		"/>
		<polygon clip-path="url(#SVGID_4_)" points="170,876.4 169,875.2 273.7,780.6 274.4,781.4 		"/>
		<polygon clip-path="url(#SVGID_4_)" points="209.3,914.9 208.7,914.5 244.2,874.4 244.7,874.8 		"/>
		<polygon clip-path="url(#SVGID_4_)" points="183.4,890.5 179.8,886.6 255.6,813.7 258.5,816.7 		"/>
		<path clip-path="url(#SVGID_4_)" d="M172.4,878.9l-1.9-2c-1-1-1.8-2.1-1.8-2.1l71.9-64.9c0,0,0.7,0.9,1.5,1.7
			c0.8,0.8,1.5,1.6,1.5,1.6L172.4,878.9z"/>
		<polygon clip-path="url(#SVGID_4_)" points="203.5,909.9 201.3,907.8 222.4,884.9 224.5,886.9 		"/>
		<polygon clip-path="url(#SVGID_4_)" points="243.9,942.9 242.5,941.9 270.7,903.8 272,904.7 		"/>
		<polygon clip-path="url(#SVGID_4_)" points="197.8,904.5 191.6,898.6 197,893.1 203.1,898.9 		"/>
		<polygon clip-path="url(#SVGID_4_)" points="266.3,958.4 266.1,958.3 325.2,868.1 325.4,868.2 		"/>
		<polygon clip-path="url(#SVGID_4_)" points="209.9,915.5 208.5,914.3 214.4,907.7 215.7,908.9 		"/>
		<polygon clip-path="url(#SVGID_4_)" points="236.3,937.2 235.5,936.5 239.5,931.4 240.2,932 		"/>
		<polygon clip-path="url(#SVGID_4_)" points="240.7,940.6 238.3,938.8 276.8,888 278.9,889.6 		"/>
		<polygon clip-path="url(#SVGID_4_)" points="242.8,942.1 241.3,941 267.1,906.4 268.5,907.4 		"/>
		<polygon clip-path="url(#SVGID_4_)" points="246.1,944.5 244,943 262.5,917.8 264.5,919.2 		"/>
		<path clip-path="url(#SVGID_4_)" d="M228.9,931.3c0,0-1.9-1.5-3.8-3c-1.9-1.5-3.8-3.1-3.8-3.1l98.7-119.1l5.3,4.2L228.9,931.3z"/>
		<polygon clip-path="url(#SVGID_4_)" points="273.7,963.2 273.2,962.9 352,838.2 352.3,838.4 		"/>
		<polygon clip-path="url(#SVGID_4_)" points="290.5,973.3 285.8,970.6 337.3,883.5 341,885.7 		"/>
		<polygon clip-path="url(#SVGID_4_)" points="274.1,963.4 273.4,963 357.8,829.4 358.3,829.7 		"/>
		<polygon clip-path="url(#SVGID_4_)" points="268.2,959.7 267.9,959.5 273.6,950.7 273.9,950.9 		"/>
		<polygon clip-path="url(#SVGID_4_)" points="269.6,960.6 266.7,958.7 304.4,901 306.9,902.6 		"/>
		<polygon clip-path="url(#SVGID_4_)" points="235.2,936.3 233.2,934.7 253.7,908.3 255.6,909.8 		"/>
		<polygon clip-path="url(#SVGID_4_)" points="267.8,959.4 266.2,958.3 286.1,927.9 287.7,928.9 		"/>
		<polygon clip-path="url(#SVGID_4_)" points="298,977.6 295.8,976.3 327,920.7 328.9,921.7 		"/>
		<polygon clip-path="url(#SVGID_4_)" points="241.8,941.4 237.2,937.9 293.3,864.2 297.1,867 		"/>
		<polygon clip-path="url(#SVGID_4_)" points="272.9,962.7 271.6,961.8 284.7,941.3 285.9,942.1 		"/>
		<polygon clip-path="url(#SVGID_4_)" points="252.4,948.9 250.6,947.7 267.2,924.4 268.8,925.5 		"/>
		<polygon clip-path="url(#SVGID_4_)" points="315.2,986.6 311.6,984.8 337.5,934.4 340.7,936 		"/>
		<polygon clip-path="url(#SVGID_4_)" points="278.9,966.5 276.7,965.1 286.7,949 288.8,950.3 		"/>
		<polygon clip-path="url(#SVGID_4_)" points="294.4,975.5 291.9,974.1 332.9,902.4 335,903.6 		"/>
		<path clip-path="url(#SVGID_4_)" d="M326,992c0,0-1.1-0.5-2.2-1c-1.1-0.5-2.1-1-2.1-1l12.2-25.2c0,0,1,0.5,2,1c1,0.5,2,0.9,2,0.9
			L326,992z"/>
		<polygon clip-path="url(#SVGID_4_)" points="323,990.6 319.7,988.9 338.7,950.3 341.7,951.9 		"/>
		<polygon clip-path="url(#SVGID_4_)" points="259.7,954.1 259,953.7 276.8,927.5 277.4,927.9 		"/>
		<polygon clip-path="url(#SVGID_4_)" points="322,990.1 321.1,989.7 378.6,871.9 379.2,872.2 		"/>
		<polygon clip-path="url(#SVGID_4_)" points="300.4,979 298.3,977.8 307.7,960.6 309.8,961.8 		"/>
		<polygon clip-path="url(#SVGID_4_)" points="340.2,998.4 339.2,998 348.5,976.8 349.4,977.2 		"/>
		<polygon clip-path="url(#SVGID_4_)" points="298.7,978 296.4,976.7 355.3,871.3 357,872.3 		"/>
		<polygon clip-path="url(#SVGID_4_)" points="332.6,995 327.1,992.5 381.7,876.5 385.8,878.4 		"/>
		<polygon clip-path="url(#SVGID_4_)" points="286.8,971.2 284.9,970 357,848.6 358.4,849.4 		"/>
		<polygon clip-path="url(#SVGID_4_)" points="340.2,998.4 338.4,997.6 362.7,942.5 364.3,943.1 		"/>
		<polygon clip-path="url(#SVGID_4_)" points="306.4,982.1 304.3,981 330.8,931.5 332.7,932.5 		"/>
		<polygon clip-path="url(#SVGID_4_)" points="356.6,1005.2 349.6,1002.4 435.9,792.9 439.7,794.4 		"/>
		<polygon clip-path="url(#SVGID_4_)" points="324.2,991.1 323.3,990.8 339.9,956.3 340.7,956.7 		"/>
		<polygon clip-path="url(#SVGID_4_)" points="355.8,1004.8 353.4,1003.9 371.1,959.9 373.3,960.7 		"/>
		<polygon clip-path="url(#SVGID_4_)" points="373.3,1011.5 372.8,1011.3 405.1,920.3 405.5,920.5 		"/>
		<polygon clip-path="url(#SVGID_4_)" points="377.9,1013 376.4,1012.5 408.5,919.6 409.7,920.1 		"/>
		<polygon clip-path="url(#SVGID_4_)" points="378.9,1013.4 373.8,1011.6 395.7,949.7 400,951.2 		"/>
		<polygon clip-path="url(#SVGID_4_)" points="333.9,995.6 333.1,995.2 424.4,794.5 424.9,794.7 		"/>
		<polygon clip-path="url(#SVGID_4_)" points="346.1,1001 344.2,1000.2 363.3,955.4 365,956.1 		"/>
		<polygon clip-path="url(#SVGID_4_)" points="379.2,1013.5 378.6,1013.3 400.9,947.7 401.5,947.9 		"/>
		<polygon clip-path="url(#SVGID_4_)" points="380.5,1013.9 370.4,1010.5 393.5,946.3 402.2,949.3 		"/>
		<polygon clip-path="url(#SVGID_4_)" points="413,1023.7 412.3,1023.5 450.4,878.8 450.9,879 		"/>
		<polygon clip-path="url(#SVGID_4_)" points="422.5,1026 421.4,1025.8 435.8,966.6 436.8,966.8 		"/>
		<polygon clip-path="url(#SVGID_4_)" points="383.1,1014.8 382.1,1014.5 401.2,957.2 402,957.5 		"/>
		<polygon clip-path="url(#SVGID_4_)" points="427.5,1027.2 423.1,1026.2 427.1,1009.3 431.4,1010.3 		"/>
		<polygon clip-path="url(#SVGID_4_)" points="402.2,1020.7 400,1020 423.3,940.1 425.1,940.6 		"/>
		<polygon clip-path="url(#SVGID_4_)" points="377.5,1012.9 375.4,1012.2 391.4,966.2 393.3,966.8 		"/>
		<polygon clip-path="url(#SVGID_4_)" points="411.2,1023.2 409.7,1022.8 414.9,1003.6 416.3,1004 		"/>
		<polygon clip-path="url(#SVGID_4_)" points="438.6,1029.7 437.3,1029.4 451.1,963.3 452.3,963.6 		"/>
		<path clip-path="url(#SVGID_4_)" d="M370.1,1010.3l-2.1-0.7c-1-0.4-2-0.8-2-0.8l18.7-50.4c0,0,0.9,0.4,1.8,0.7
			c0.9,0.3,1.8,0.6,1.8,0.6L370.1,1010.3z"/>
		<polygon clip-path="url(#SVGID_4_)" points="443.2,1030.6 440.5,1030.1 474.6,861.3 476.4,861.6 		"/>
		<polygon clip-path="url(#SVGID_4_)" points="413.5,1023.8 410.5,1023 449.1,878.8 451.1,879.4 		"/>
		<polygon clip-path="url(#SVGID_4_)" points="397.3,1019.3 396.6,1019 408.8,978.1 409.5,978.3 		"/>
		<polygon clip-path="url(#SVGID_4_)" points="395,1018.6 394.4,1018.4 409.7,967.9 410.3,968.1 		"/>
		<polygon clip-path="url(#SVGID_4_)" points="416.7,1024.6 414.8,1024.2 431.3,960.1 433,960.5 		"/>
		<polygon clip-path="url(#SVGID_4_)" points="442.8,1030.5 441.5,1030.3 450.2,986.5 451.4,986.7 		"/>
		<polygon clip-path="url(#SVGID_4_)" points="474.6,1035.7 473,1035.5 480.1,982.2 481.6,982.4 		"/>
		<polygon clip-path="url(#SVGID_4_)" points="400.3,1020.1 394.9,1018.6 418.4,940.9 423,942.2 		"/>
		<polygon clip-path="url(#SVGID_4_)" points="404.4,1021.3 404.1,1021.2 421.3,960.2 421.5,960.3 		"/>
		<polygon clip-path="url(#SVGID_4_)" points="416,1024.5 414.2,1024 428,970.9 429.6,971.4 		"/>
		<polygon clip-path="url(#SVGID_4_)" points="456.3,1032.9 455.7,1032.8 473.4,929.2 473.8,929.3 		"/>
		<polygon clip-path="url(#SVGID_4_)" points="467.4,1034.7 466.2,1034.6 477.5,958.1 478.5,958.2 		"/>
		<polygon clip-path="url(#SVGID_4_)" points="493.8,1037.8 489.6,1037.5 496.5,968.3 500.2,968.6 		"/>
		<polygon clip-path="url(#SVGID_4_)" points="428.1,1027.3 426,1026.8 452.8,912 454.4,912.4 		"/>
		<polygon clip-path="url(#SVGID_4_)" points="515.4,1039.4 513.9,1039.4 517.9,961.3 519.2,961.4 		"/>
		<polygon clip-path="url(#SVGID_4_)" points="507.9,1038.9 507.3,1038.9 523.2,792.9 523.5,792.9 		"/>
		<polygon clip-path="url(#SVGID_4_)" points="440.2,1030 438.9,1029.8 472.3,867.2 473.2,867.4 		"/>
		<polygon clip-path="url(#SVGID_4_)" points="489,1037.5 486.5,1037.1 502.2,889.7 504,889.9 		"/>
		<polygon clip-path="url(#SVGID_4_)" points="527.4,1039.8 526,1039.7 526.8,1011.7 528.1,1011.7 		"/>
		<polygon clip-path="url(#SVGID_4_)" points="485.6,1037 484.6,1036.9 494.5,947.8 495.3,947.9 		"/>
		<polygon clip-path="url(#SVGID_4_)" points="472.4,1035.4 468.9,1034.9 479.6,959.4 482.6,959.8 		"/>
		<polygon clip-path="url(#SVGID_4_)" points="496.2,1038 494,1037.9 501.4,956.6 503.3,956.7 		"/>
		<polygon clip-path="url(#SVGID_4_)" points="497.8,1038.2 495.5,1038 507.3,904.3 509,904.4 		"/>
		<polygon clip-path="url(#SVGID_4_)" points="474.8,1035.7 473.9,1035.6 498.6,849 499.1,849 		"/>
		<polygon clip-path="url(#SVGID_4_)" points="550.3,1039.8 548.3,1039.9 546.8,949.7 548.4,949.7 		"/>
		<polygon clip-path="url(#SVGID_4_)" points="526.4,1039.7 525.1,1039.7 526,1008.3 527.2,1008.3 		"/>
		<polygon clip-path="url(#SVGID_4_)" points="520.4,1039.6 519.3,1039.5 524.3,916.2 525.2,916.2 		"/>
		<polygon clip-path="url(#SVGID_4_)" points="547,1039.9 546.7,1039.9 545.8,967.6 546,967.6 		"/>
		<polygon clip-path="url(#SVGID_4_)" points="560.5,1039.5 559.6,1039.6 557.6,989 558.5,989 		"/>
		<polygon clip-path="url(#SVGID_4_)" points="563.5,1039.4 560.5,1039.5 556.2,934.1 558.6,934 		"/>
		<polygon clip-path="url(#SVGID_4_)" points="586.6,1037.8 586.3,1037.8 574.7,912.7 575,912.7 		"/>
		<polygon clip-path="url(#SVGID_4_)" points="543.5,1040 543.3,1040 542.8,971.1 543,971.1 		"/>
		<polygon clip-path="url(#SVGID_4_)" points="529.5,1039.8 529.3,1039.8 529.6,1026.3 529.8,1026.3 		"/>
		<polygon clip-path="url(#SVGID_4_)" points="530.9,1039.8 529,1039.8 529.9,996.2 531.7,996.2 		"/>
		<polygon clip-path="url(#SVGID_4_)" points="532,1039.9 531,1039.8 531.7,1001.9 532.6,1002 		"/>
		<polygon clip-path="url(#SVGID_4_)" points="583.8,1038 582.3,1038.1 573.8,937.1 575,937 		"/>
		<polygon clip-path="url(#SVGID_4_)" points="581.3,1038.2 580.5,1038.3 573.6,952.8 574.2,952.8 		"/>
		<polygon clip-path="url(#SVGID_4_)" points="547.3,1039.9 541.3,1040 541.1,959.9 546.1,959.7 		"/>
		<polygon clip-path="url(#SVGID_4_)" points="553.6,1039.7 551.2,1039.8 548.7,925.7 550.6,925.6 		"/>
		<polygon clip-path="url(#SVGID_4_)" points="595.7,1036.9 592.1,1037.3 588.4,1001 591.7,1000.6 		"/>
		<polygon clip-path="url(#SVGID_4_)" points="626.9,1032.4 624.1,1032.9 612.9,966.5 615.2,966.1 		"/>
		<polygon clip-path="url(#SVGID_4_)" points="593.2,1037.2 591.4,1037.4 583.6,961.7 585.1,961.5 		"/>
		<polygon clip-path="url(#SVGID_4_)" points="651.3,1027.4 647,1028.4 627.5,939 631,938.1 		"/>
		<polygon clip-path="url(#SVGID_4_)" points="572.5,1038.9 570.5,1039 565.2,951.5 566.9,951.4 		"/>
		<polygon clip-path="url(#SVGID_4_)" points="639.5,1030.1 636.4,1030.6 635.5,1026 638.6,1025.5 		"/>
		<polygon clip-path="url(#SVGID_4_)" points="589,1037.6 587.4,1037.7 580,959.3 581.4,959.2 		"/>
		<polygon clip-path="url(#SVGID_4_)" points="587.8,1037.7 585.1,1037.9 575.4,929.9 577.5,929.8 		"/>
		<polygon clip-path="url(#SVGID_4_)" points="621.4,1033.3 619.3,1033.7 598,900.5 599.6,900.2 		"/>
		<polygon clip-path="url(#SVGID_4_)" points="641.6,1029.7 639.8,1030 635.1,1007 636.9,1006.7 		"/>
		<polygon clip-path="url(#SVGID_4_)" points="650.3,1027.7 647.5,1028.3 597.1,798.7 598.6,798.3 		"/>
		<polygon clip-path="url(#SVGID_4_)" points="653.7,1026.9 650,1027.7 635.3,962.1 638.5,961.3 		"/>
		<path clip-path="url(#SVGID_4_)" d="M618.2,1033.9l-2.4,0.4c-1.2,0.2-2.4,0.3-2.4,0.3l-13.8-93.5c0,0,1-0.1,1.9-0.3
			c1-0.2,1.9-0.3,1.9-0.3L618.2,1033.9z"/>
		<polygon clip-path="url(#SVGID_4_)" points="629.9,1031.8 629.4,1031.9 625.1,1008.4 625.6,1008.3 		"/>
		<polygon clip-path="url(#SVGID_4_)" points="630.2,1031.8 629.6,1031.9 606.7,905.9 607.2,905.8 		"/>
		<polygon clip-path="url(#SVGID_4_)" points="623.7,1032.9 622.1,1033.2 599.9,899.3 601.1,899.1 		"/>
		<polygon clip-path="url(#SVGID_4_)" points="625.3,1032.6 620.9,1033.4 618.3,1017 622.5,1016.2 		"/>
		<polygon clip-path="url(#SVGID_4_)" points="128.7,255.7 129.4,254.8 142.6,264 141.9,264.9 		"/>
		<polygon clip-path="url(#SVGID_4_)" points="119.7,269.3 120.8,267.6 124.4,269.9 123.3,271.6 		"/>
		<polygon clip-path="url(#SVGID_4_)" points="117.6,272.5 119,270.3 262.1,362.1 261.1,363.6 		"/>
		<polygon clip-path="url(#SVGID_4_)" points="107.6,289 109.7,285.3 213.2,346.7 211.6,349.5 		"/>
		<polygon clip-path="url(#SVGID_4_)" points="107,290 107.9,288.4 146.4,310.9 145.6,312.3 		"/>
		<polygon clip-path="url(#SVGID_4_)" points="110.9,283.2 112.7,280.2 126.1,288.4 124.4,291.3 		"/>
		<polygon clip-path="url(#SVGID_4_)" points="113.4,279.1 115.8,275.3 163.3,305 161.1,308.4 		"/>
		<polygon clip-path="url(#SVGID_4_)" points="121.9,265.8 122.1,265.4 232.1,337.8 231.9,338.1 		"/>
		<polygon clip-path="url(#SVGID_4_)" points="97.6,306.9 98,306.1 165.4,341.8 165.1,342.5 		"/>
		<polygon clip-path="url(#SVGID_4_)" points="100.4,301.4 100.7,301 121.6,312.4 121.4,312.8 		"/>
		<polygon clip-path="url(#SVGID_4_)" points="121.9,265.8 122.4,265 179.9,302.9 179.5,303.7 		"/>
		<polygon clip-path="url(#SVGID_4_)" points="134.8,247.1 135.5,246.1 202.1,294.5 201.5,295.4 		"/>
		<polygon clip-path="url(#SVGID_4_)" points="116.8,273.7 117.7,272.3 172.1,306.9 171.3,308.1 		"/>
		<polygon clip-path="url(#SVGID_4_)" points="113,279.6 113.3,279.2 169,313.3 168.8,313.7 		"/>
		<polygon clip-path="url(#SVGID_4_)" points="120.3,268.3 120.7,267.7 169.7,299.5 169.3,300.1 		"/>
		<polygon clip-path="url(#SVGID_4_)" points="84.3,334.2 85.1,332.4 158.4,365.9 157.7,367.4 		"/>
		<polygon clip-path="url(#SVGID_4_)" points="111.5,282.2 112.6,280.4 194.8,330.4 193.9,331.9 		"/>
		<polygon clip-path="url(#SVGID_4_)" points="95,312.1 95.7,310.7 157.6,342.7 157,343.9 		"/>
		<polygon clip-path="url(#SVGID_4_)" points="91.9,318 92.5,316.9 125.9,333.6 125.4,334.6 		"/>
		<polygon clip-path="url(#SVGID_4_)" points="105.9,292 106.6,290.7 228.8,361.1 228.3,362 		"/>
		<polygon clip-path="url(#SVGID_4_)" points="81.1,341.3 81.4,340.7 130.4,362 130.2,362.6 		"/>
		<polygon clip-path="url(#SVGID_4_)" points="96.5,309.1 98.9,304.4 191.7,354 189.8,357.7 		"/>
		<polygon clip-path="url(#SVGID_4_)" points="104.1,295 106.8,290.3 190.7,338.7 188.5,342.5 		"/>
		<polygon clip-path="url(#SVGID_4_)" points="84.2,334.3 85.5,331.5 113.8,344.5 112.6,347.2 		"/>
		<polygon clip-path="url(#SVGID_4_)" points="65.2,383.1 65.8,381.3 110.8,396.4 110.3,397.9 		"/>
		<path clip-path="url(#SVGID_4_)" d="M87.5,327.1l1.8-3.9c1-1.9,1.9-3.8,1.9-3.8l6.9,3.4c0,0-0.9,1.9-1.9,3.8
			c-0.9,1.9-1.8,3.8-1.8,3.8L87.5,327.1z"/>
		<polygon clip-path="url(#SVGID_4_)" points="57.4,409.2 57.4,408.9 161.5,437.2 161.4,437.4 		"/>
		<polygon clip-path="url(#SVGID_4_)" points="80.8,342.1 81.5,340.4 89.6,343.9 88.8,345.5 		"/>
		<polygon clip-path="url(#SVGID_4_)" points="68.3,373.9 68.6,373 74.8,375.2 74.5,376.1 		"/>
		<polygon clip-path="url(#SVGID_4_)" points="66.5,379.3 67.5,376.4 127.6,397.3 126.8,399.8 		"/>
		<polygon clip-path="url(#SVGID_4_)" points="65.7,381.7 66.3,380 107.2,393.8 106.7,395.4 		"/>
		<polygon clip-path="url(#SVGID_4_)" points="64.4,385.6 65.2,383.1 94.9,392.9 94.1,395.2 		"/>
		<polygon clip-path="url(#SVGID_4_)" points="71.5,365.1 75.1,355.9 218.9,412.9 216.4,419.2 		"/>
		<polygon clip-path="url(#SVGID_4_)" points="55.1,417.7 55.2,417.1 198.2,453.3 198.1,453.7 		"/>
		<polygon clip-path="url(#SVGID_4_)" points="50.7,436.8 51.9,431.5 150.6,453.4 149.7,457.6 		"/>
		<polygon clip-path="url(#SVGID_4_)" points="55,418.2 55.2,417.4 208.4,456.1 208.3,456.6 		"/>
		<polygon clip-path="url(#SVGID_4_)" points="56.7,411.4 56.8,411 67,413.7 66.9,414.1 		"/>
		<polygon clip-path="url(#SVGID_4_)" points="56.3,413 57.2,409.6 123.8,427.5 123,430.5 		"/>
		<polygon clip-path="url(#SVGID_4_)" points="68.8,372.6 69.6,370.2 101,381.5 100.3,383.8 		"/>
		<polygon clip-path="url(#SVGID_4_)" points="56.9,410.9 57.4,409 92.6,418.6 92.1,420.3 		"/>
		<polygon clip-path="url(#SVGID_4_)" points="49,445.3 49.5,442.8 112.1,455.2 111.7,457.3 		"/>
		<polygon clip-path="url(#SVGID_4_)" points="66.1,380.5 67.9,375 155.4,405.6 153.9,410.1 		"/>
		<polygon clip-path="url(#SVGID_4_)" points="55.3,416.7 55.7,415.3 79.3,421.3 78.9,422.7 		"/>
		<polygon clip-path="url(#SVGID_4_)" points="62,392.9 62.6,390.9 90,399.4 89.4,401.3 		"/>
		<polygon clip-path="url(#SVGID_4_)" points="45.6,464.5 46.3,460.5 102.3,469.4 101.7,473 		"/>
		<polygon clip-path="url(#SVGID_4_)" points="53.7,423.7 54.3,421.2 72.7,425.7 72.1,428.1 		"/>
		<polygon clip-path="url(#SVGID_4_)" points="49.8,441.2 50.3,438.4 131.2,455.1 130.7,457.5 		"/>
		<polygon clip-path="url(#SVGID_4_)" points="44.1,476.4 44.7,471.7 72.4,475.5 71.8,479.9 		"/>
		<polygon clip-path="url(#SVGID_4_)" points="44.5,473.2 45,469.4 87.6,475.5 87.1,478.9 		"/>
		<polygon clip-path="url(#SVGID_4_)" points="59.5,401.5 59.7,400.8 90.1,409.6 89.9,410.3 		"/>
		<polygon clip-path="url(#SVGID_4_)" points="44.7,472 44.8,471.1 174.6,489 174.5,489.7 		"/>
		<polygon clip-path="url(#SVGID_4_)" points="48.5,448.1 49,445.6 68.2,449.3 67.7,451.6 		"/>
		<polygon clip-path="url(#SVGID_4_)" points="42.3,491.8 42.4,490.8 65.4,493.1 65.3,494 		"/>
		<polygon clip-path="url(#SVGID_4_)" points="48.9,446.1 49.3,443.5 167.8,466.7 167.5,468.7 		"/>
		<polygon clip-path="url(#SVGID_4_)" points="43.2,483.6 43.9,477.6 171.1,493.5 170.6,498 		"/>
		<polygon clip-path="url(#SVGID_4_)" points="51.6,432.7 52.1,430.5 190,461.3 189.6,462.9 		"/>
		<polygon clip-path="url(#SVGID_4_)" points="42.3,491.8 42.5,489.9 102.4,495.9 102.3,497.6 		"/>
		<polygon clip-path="url(#SVGID_4_)" points="47.3,454.8 47.7,452.4 103.1,462.2 102.7,464.3 		"/>
		<polygon clip-path="url(#SVGID_4_)" points="40.9,509.5 41.5,502 267.4,519.1 267.1,523.1 		"/>
		<polygon clip-path="url(#SVGID_4_)" points="44.3,474.4 44.5,473.5 82.3,478.5 82.2,479.4 		"/>
		<polygon clip-path="url(#SVGID_4_)" points="41,508.6 41.2,506 88.5,509.2 88.4,511.5 		"/>
		<polygon clip-path="url(#SVGID_4_)" points="40.2,527.3 40.2,526.7 136.7,529.2 136.7,529.7 		"/>
		<polygon clip-path="url(#SVGID_4_)" points="40.1,532 40.2,530.4 138.4,532.3 138.4,533.6 		"/>
		<polygon clip-path="url(#SVGID_4_)" points="40.1,533.1 40.2,527.8 105.8,529.4 105.7,534 		"/>
		<polygon clip-path="url(#SVGID_4_)" points="43,485 43.1,484.1 262.3,508.6 262.2,509.1 		"/>
		<polygon clip-path="url(#SVGID_4_)" points="41.8,498.2 41.9,496.2 90.4,500.5 90.3,502.3 		"/>
		<polygon clip-path="url(#SVGID_4_)" points="40.1,533.4 40.1,532.8 109.3,533.8 109.3,534.3 		"/>
		<polygon clip-path="url(#SVGID_4_)" points="40.1,534.8 40.3,524.2 108.5,526.3 108.2,535.5 		"/>
		<polygon clip-path="url(#SVGID_4_)" points="40.8,568.5 40.7,567.8 190.1,559.6 190.2,560.1 		"/>
		<polygon clip-path="url(#SVGID_4_)" points="41.5,578.3 41.4,577.1 102.2,572.6 102.3,573.7 		"/>
		<polygon clip-path="url(#SVGID_4_)" points="40,537.5 40,536.5 100.4,536.9 100.3,537.8 		"/>
		<polygon clip-path="url(#SVGID_4_)" points="41.9,583.3 41.6,578.9 58.8,577.5 59.2,581.9 		"/>
		<polygon clip-path="url(#SVGID_4_)" points="40.4,557.4 40.3,555.1 123.5,552.6 123.6,554.5 		"/>
		<polygon clip-path="url(#SVGID_4_)" points="40.1,531.7 40.2,529.4 88.9,530.4 88.8,532.5 		"/>
		<polygon clip-path="url(#SVGID_4_)" points="40.7,566.7 40.6,565.2 60.4,564.2 60.5,565.6 		"/>
		<polygon clip-path="url(#SVGID_4_)" points="43,594.7 42.8,593.3 110,586.2 110.1,587.3 		"/>
		<polygon clip-path="url(#SVGID_4_)" points="40.3,523.8 40.4,519.5 94.1,521.7 94,525.6 		"/>
		<polygon clip-path="url(#SVGID_4_)" points="43.6,599.3 43.2,596.5 214.3,577.2 214.6,579.1 		"/>
		<polygon clip-path="url(#SVGID_4_)" points="40.8,569 40.6,565.9 189.7,558.3 189.8,560.4 		"/>
		<polygon clip-path="url(#SVGID_4_)" points="40.2,552.4 40.2,551.5 82.9,550.6 82.9,551.3 		"/>
		<polygon clip-path="url(#SVGID_4_)" points="40.2,549.9 40.1,549.3 92.9,548.3 92.9,548.9 		"/>
		<polygon clip-path="url(#SVGID_4_)" points="41.1,572.3 40.9,570.4 107,566.4 107.2,568.1 		"/>
		<polygon clip-path="url(#SVGID_4_)" points="43.5,598.9 43.3,597.5 87.7,592.5 87.8,593.7 		"/>
		<polygon clip-path="url(#SVGID_4_)" points="48.3,630.8 48,629.1 100.8,619.6 101.1,621.1 		"/>
		<polygon clip-path="url(#SVGID_4_)" points="40.3,555.5 40.2,549.8 121.2,548.3 121.4,553 		"/>
		<polygon clip-path="url(#SVGID_4_)" points="40.4,559.6 40.4,559.4 103.7,556.9 103.7,557.2 		"/>
		<polygon clip-path="url(#SVGID_4_)" points="41,571.6 40.9,569.8 95.6,566.5 95.8,568.2 		"/>
		<polygon clip-path="url(#SVGID_4_)" points="45.2,612.4 45.2,611.9 149.2,596.9 149.3,597.3 		"/>
		<polygon clip-path="url(#SVGID_4_)" points="47,623.6 46.8,622.4 123.1,609.7 123.2,610.7 		"/>
		<polygon clip-path="url(#SVGID_4_)" points="52.2,649.7 51.2,645.5 119.2,630.9 120.1,634.5 		"/>
		<polygon clip-path="url(#SVGID_4_)" points="42,584 41.8,581.8 159.3,572 159.4,573.7 		"/>
		<polygon clip-path="url(#SVGID_4_)" points="57.4,670.8 56.9,669.4 132.4,649.2 132.8,650.4 		"/>
		<polygon clip-path="url(#SVGID_4_)" points="55.4,663.5 55.2,662.9 294.2,602.5 294.3,602.8 		"/>
		<polygon clip-path="url(#SVGID_4_)" points="43.2,596.2 43,595 208,576.9 208.1,577.7 		"/>
		<polygon clip-path="url(#SVGID_4_)" points="51.1,645 50.5,642.5 195.7,612.2 196.1,614 		"/>
		<polygon clip-path="url(#SVGID_4_)" points="60.7,682.4 60.3,681.1 87.2,673.2 87.5,674.5 		"/>
		<polygon clip-path="url(#SVGID_4_)" points="50.3,641.6 50.1,640.7 138,622.7 138.2,623.5 		"/>
		<polygon clip-path="url(#SVGID_4_)" points="47.9,628.5 47.3,625 122.5,612.1 123,615.1 		"/>
		<polygon clip-path="url(#SVGID_4_)" points="52.7,652.1 52.2,649.9 131.9,632 132.3,633.8 		"/>
		<polygon clip-path="url(#SVGID_4_)" points="53.1,653.6 52.5,651.3 183.4,621.5 183.8,623.2 		"/>
		<polygon clip-path="url(#SVGID_4_)" points="48.3,630.9 48.2,630 233.4,596.3 233.5,596.8 		"/>
		<polygon clip-path="url(#SVGID_4_)" points="67.7,704.3 67.1,702.4 152.3,673.2 152.9,674.7 		"/>
		<polygon clip-path="url(#SVGID_4_)" points="60.4,681.5 60,680.2 90.2,671.4 90.5,672.6 		"/>
		<polygon clip-path="url(#SVGID_4_)" points="58.7,675.7 58.4,674.6 177.3,641.4 177.6,642.2 		"/>
		<polygon clip-path="url(#SVGID_4_)" points="66.7,701.2 66.6,700.9 135,677.7 135.1,677.9 		"/>
		<polygon clip-path="url(#SVGID_4_)" points="71.2,714.1 70.8,713.2 118.2,695.6 118.5,696.5 		"/>
		<polygon clip-path="url(#SVGID_4_)" points="72.2,716.8 71.1,714 170.1,677.3 171,679.5 		"/>
		<polygon clip-path="url(#SVGID_4_)" points="80.9,738.3 80.8,738.1 196.1,688.3 196.2,688.5 		"/>
		<polygon clip-path="url(#SVGID_4_)" points="65.5,697.8 65.5,697.6 130.8,675.9 130.8,676.1 		"/>
		<polygon clip-path="url(#SVGID_4_)" points="61.2,684.5 61.2,684.2 74.1,680.3 74.2,680.6 		"/>
		<polygon clip-path="url(#SVGID_4_)" points="61.6,685.9 61.1,684 102.9,671.4 103.4,673.1 		"/>
		<polygon clip-path="url(#SVGID_4_)" points="61.9,686.8 61.7,685.9 97.9,674.9 98.2,675.7 		"/>
		<polygon clip-path="url(#SVGID_4_)" points="79.8,735.8 79.2,734.5 172.6,695 173.1,696 		"/>
		<polygon clip-path="url(#SVGID_4_)" points="78.8,733.4 78.5,732.8 157.6,699.7 157.9,700.3 		"/>
		<polygon clip-path="url(#SVGID_4_)" points="66.7,701.5 64.8,695.7 141,670.8 142.6,675.6 		"/>
		<polygon clip-path="url(#SVGID_4_)" points="68.8,707.5 68,705.2 175.8,667.5 176.4,669.3 		"/>
		<polygon clip-path="url(#SVGID_4_)" points="84.7,746.8 83.2,743.5 116.6,728.6 118,731.6 		"/>
		<polygon clip-path="url(#SVGID_4_)" points="98.6,775 97.3,772.6 156.9,741.2 158,743.4 		"/>
		<polygon clip-path="url(#SVGID_4_)" points="83.7,744.4 82.9,742.8 152.5,711.9 153.1,713.3 		"/>
		<polygon clip-path="url(#SVGID_4_)" points="110.9,796.7 108.7,792.9 187.6,746.5 189.4,749.7 		"/>
		<polygon clip-path="url(#SVGID_4_)" points="75.6,725.3 74.8,723.4 156.4,691.2 157,692.8 		"/>
		<polygon clip-path="url(#SVGID_4_)" points="104.8,786.3 103.3,783.5 107.4,781.2 108.9,783.9 		"/>
		<polygon clip-path="url(#SVGID_4_)" points="81.9,740.6 81.3,739.1 153.5,707.7 154.1,709 		"/>
		<polygon clip-path="url(#SVGID_4_)" points="81.4,739.5 80.3,737 180,694.2 180.8,696.2 		"/>
		<polygon clip-path="url(#SVGID_4_)" points="96.1,770.1 95.1,768.2 215.1,706.6 215.8,708 		"/>
		<polygon clip-path="url(#SVGID_4_)" points="105.9,788.1 105,786.5 125.4,774.9 126.3,776.5 		"/>
		<polygon clip-path="url(#SVGID_4_)" points="110.4,795.8 108.9,793.3 311.5,674.1 312.3,675.4 		"/>
		<polygon clip-path="url(#SVGID_4_)" points="112.1,798.9 110.2,795.6 168,761.1 169.7,764 		"/>
		<polygon clip-path="url(#SVGID_4_)" points="94.6,767.2 92.4,762.9 177,720.8 178.7,724.2 		"/>
		<polygon clip-path="url(#SVGID_4_)" points="100,777.7 99.8,777.3 120.8,765.9 121,766.4 		"/>
		<polygon clip-path="url(#SVGID_4_)" points="100.2,778 99.9,777.5 212.5,716.6 212.7,717 		"/>
		<polygon clip-path="url(#SVGID_4_)" points="97.2,772.2 96.4,770.7 216.8,708 217.3,709.1 		"/>
		<polygon clip-path="url(#SVGID_4_)" points="97.9,773.6 95.9,769.7 110.6,762 112.6,765.8 		"/>
		<polygon clip-path="url(#SVGID_4_)" points="683.2,60.9 684.3,61.2 679.6,76.6 678.6,76.3 		"/>
		<polygon clip-path="url(#SVGID_4_)" points="667.4,56.4 669.4,57 668.3,61.2 666.3,60.6 		"/>
		<polygon clip-path="url(#SVGID_4_)" points="663.7,55.4 666.3,56.1 623.4,220.6 621.7,220.2 		"/>
		<polygon clip-path="url(#SVGID_4_)" points="644.9,51.1 649,52 622.9,169.4 619.7,168.7 		"/>
		<polygon clip-path="url(#SVGID_4_)" points="643.8,50.8 645.5,51.2 636.1,94.8 634.5,94.5 		"/>
		<polygon clip-path="url(#SVGID_4_)" points="651.4,52.6 654.8,53.4 651.2,68.7 647.9,67.9 		"/>
		<polygon clip-path="url(#SVGID_4_)" points="656.1,53.7 660.5,54.7 647,109.1 643.1,108.1 		"/>
		<polygon clip-path="url(#SVGID_4_)" points="671.4,57.5 671.9,57.7 637.2,184.6 636.8,184.5 		"/>
		<polygon clip-path="url(#SVGID_4_)" points="624.8,47.3 625.6,47.4 612.6,122.6 611.9,122.5 		"/>
		<polygon clip-path="url(#SVGID_4_)" points="630.8,48.3 631.3,48.4 626.9,71.9 626.5,71.8 		"/>
		<polygon clip-path="url(#SVGID_4_)" points="671.4,57.5 672.3,57.8 654.1,124.3 653.3,124 		"/>
		<polygon clip-path="url(#SVGID_4_)" points="693.2,64 694.5,64.4 669,142.7 668,142.4 		"/>
		<polygon clip-path="url(#SVGID_4_)" points="662.3,55.1 663.9,55.5 648,117.9 646.6,117.6 		"/>
		<polygon clip-path="url(#SVGID_4_)" points="655.5,53.5 655.9,53.6 640.8,117.2 640.4,117.1 		"/>
		<polygon clip-path="url(#SVGID_4_)" points="668.5,56.7 669.3,57 654.2,113.4 653.5,113.2 		"/>
		<polygon clip-path="url(#SVGID_4_)" points="594.7,43 596.7,43.3 587.6,123.3 585.9,123.1 		"/>
		<polygon clip-path="url(#SVGID_4_)" points="652.5,52.8 654.6,53.3 632.6,147 630.9,146.6 		"/>
		<polygon clip-path="url(#SVGID_4_)" points="619,46.3 620.5,46.5 609.4,115.4 608.1,115.2 		"/>
		<polygon clip-path="url(#SVGID_4_)" points="612.4,45.3 613.6,45.4 608.1,82.4 607,82.2 		"/>
		<polygon clip-path="url(#SVGID_4_)" points="641.5,50.3 643,50.7 614,188.7 613,188.5 		"/>
		<polygon clip-path="url(#SVGID_4_)" points="587,42.2 587.7,42.3 582.6,95.6 582,95.5 		"/>
		<polygon clip-path="url(#SVGID_4_)" points="622.3,46.8 627.5,47.8 609.2,151.4 605.1,150.6 		"/>
		<path clip-path="url(#SVGID_4_)" d="M638,49.7c0,0,1.4,0.3,2.7,0.5c1.3,0.3,2.7,0.6,2.7,0.6l-20,94.7c0,0-1.1-0.2-2.2-0.5
			c-1.1-0.2-2.2-0.4-2.2-0.4L638,49.7z"/>
		<polygon clip-path="url(#SVGID_4_)" points="594.5,43 597.6,43.4 594.1,74.3 591.2,74 		"/>
		<polygon clip-path="url(#SVGID_4_)" points="542.5,40 544.3,40.1 543.9,87.5 542.3,87.5 		"/>
		<polygon clip-path="url(#SVGID_4_)" points="602.4,44 610.9,45.1 609.8,52.7 601.5,51.6 		"/>
		<polygon clip-path="url(#SVGID_4_)" points="515.4,40.6 515.7,40.6 520.9,148.3 520.7,148.3 		"/>
		<polygon clip-path="url(#SVGID_4_)" points="586.1,42.2 588,42.3 587.1,51.1 585.3,50.9 		"/>
		<polygon clip-path="url(#SVGID_4_)" points="552.1,40.2 553.1,40.3 552.9,46.8 552,46.8 		"/>
		<polygon clip-path="url(#SVGID_4_)" points="546.5,40.1 549.5,40.2 548.3,103.8 545.6,103.8 		"/>
		<polygon clip-path="url(#SVGID_4_)" points="543.9,40.1 545.8,40.1 545.3,83.3 543.6,83.3 		"/>
		<polygon clip-path="url(#SVGID_4_)" points="539.9,40 542.5,40 542.3,71.3 539.9,71.2 		"/>
		<path clip-path="url(#SVGID_4_)" d="M561.5,40.5c0,0,2.4,0.1,4.9,0.2c2.4,0.2,4.9,0.3,4.9,0.3l-9.6,154.4c0,0-1.7-0.1-3.4-0.3
			c-1.7-0.1-3.4-0.1-3.4-0.1L561.5,40.5z"/>
		<polygon clip-path="url(#SVGID_4_)" points="506.7,41.2 507.2,41.1 516.8,188.3 516.4,188.4 		"/>
		<path clip-path="url(#SVGID_4_)" d="M487.2,42.8c0,0,1.3-0.2,2.7-0.3l2.7-0.2l9.5,100.7c0,0-1.1,0.1-2.2,0.2
			c-1.1,0.1-2.1,0.2-2.1,0.2L487.2,42.8z"/>
		<polygon clip-path="url(#SVGID_4_)" points="506.2,41.2 507,41.2 517.3,198.9 516.7,198.9 		"/>
		<polygon clip-path="url(#SVGID_4_)" points="513.2,40.7 513.5,40.7 514.1,51.2 513.7,51.2 		"/>
		<polygon clip-path="url(#SVGID_4_)" points="511.5,40.8 515,40.6 518.4,109.5 515.4,109.7 		"/>
		<polygon clip-path="url(#SVGID_4_)" points="553.5,40.3 556,40.4 555,73.8 552.6,73.7 		"/>
		<polygon clip-path="url(#SVGID_4_)" points="513.6,40.7 515.6,40.6 517.3,77 515.5,77.1 		"/>
		<polygon clip-path="url(#SVGID_4_)" points="478.6,43.8 481.1,43.5 488.6,106.9 486.4,107.2 		"/>
		<polygon clip-path="url(#SVGID_4_)" points="545.2,40.1 551,40.2 548.9,132.9 544.2,132.7 		"/>
		<polygon clip-path="url(#SVGID_4_)" points="507.6,41.1 509.2,41 510.6,65.3 509.2,65.4 		"/>
		<polygon clip-path="url(#SVGID_4_)" points="532.2,40.1 534.4,40.1 534.7,68.7 532.7,68.8 		"/>
		<polygon clip-path="url(#SVGID_4_)" points="459.3,46.5 463.3,45.8 472,101.9 468.4,102.5 		"/>
		<polygon clip-path="url(#SVGID_4_)" points="500.6,41.6 503.1,41.4 504.5,60.3 502,60.5 		"/>
		<polygon clip-path="url(#SVGID_4_)" points="482.7,43.3 485.6,43 494.5,125.1 492.1,125.4 		"/>
		<polygon clip-path="url(#SVGID_4_)" points="447.5,48.6 452.2,47.8 457.1,75.3 452.7,76.1 		"/>
		<polygon clip-path="url(#SVGID_4_)" points="450.7,48.1 454.4,47.4 461.7,89.8 458.3,90.4 		"/>
		<polygon clip-path="url(#SVGID_4_)" points="523.3,40.4 524.1,40.3 525.1,72 524.4,72 		"/>
		<polygon clip-path="url(#SVGID_4_)" points="451.9,47.9 452.8,47.7 475.5,176.8 474.8,176.9 		"/>
		<polygon clip-path="url(#SVGID_4_)" points="475.8,44.2 478.3,43.9 480.7,63.3 478.3,63.6 		"/>
		<polygon clip-path="url(#SVGID_4_)" points="432.2,51.7 433.3,51.5 438.2,74.1 437.2,74.3 		"/>
		<polygon clip-path="url(#SVGID_4_)" points="477.8,43.9 480.4,43.6 494.7,163.5 492.7,163.7 		"/>
		<polygon clip-path="url(#SVGID_4_)" points="440.3,50 446.3,48.9 470.2,174.8 465.8,175.6 		"/>
		<polygon clip-path="url(#SVGID_4_)" points="491.4,42.4 493.6,42.2 506.6,182.9 505,183 		"/>
		<polygon clip-path="url(#SVGID_4_)" points="432.3,51.7 434.1,51.3 446.8,110.2 445.2,110.6 		"/>
		<polygon clip-path="url(#SVGID_4_)" points="469.1,45.1 471.5,44.8 479.1,100.4 477,100.7 		"/>
		<polygon clip-path="url(#SVGID_4_)" points="415,55.8 422.2,54.1 475.4,274.3 471.5,275.2 		"/>
		<polygon clip-path="url(#SVGID_4_)" points="449.4,48.3 450.4,48.1 457.2,85.7 456.3,85.9 		"/>
		<polygon clip-path="url(#SVGID_4_)" points="415.8,55.6 418.3,55 429.8,101 427.6,101.5 		"/>
		<polygon clip-path="url(#SVGID_4_)" points="397.7,60.6 398.3,60.5 425.6,153 425.1,153.2 		"/>
		<polygon clip-path="url(#SVGID_4_)" points="393.1,62 394.6,61.5 423.2,155.6 422,155.9 		"/>
		<polygon clip-path="url(#SVGID_4_)" points="392.1,62.3 397.2,60.8 415.9,123.7 411.5,125 		"/>
		<polygon clip-path="url(#SVGID_4_)" points="439,50.2 439.8,50 483.8,266.1 483.3,266.2 		"/>
		<polygon clip-path="url(#SVGID_4_)" points="426,53.2 427.9,52.7 438.8,100.2 437,100.6 		"/>
		<polygon clip-path="url(#SVGID_4_)" points="391.8,62.4 392.4,62.2 412.8,128.3 412.3,128.5 		"/>
		<path clip-path="url(#SVGID_4_)" d="M390.5,62.8c0,0,2.6-0.8,5.1-1.5c2.6-0.7,5.1-1.5,5.1-1.5l19,65.5c0,0-2.2,0.6-4.4,1.3
			c-2.2,0.6-4.4,1.3-4.4,1.3L390.5,62.8z"/>
		<polygon clip-path="url(#SVGID_4_)" points="358.5,74.1 359.2,73.8 413.3,213.3 412.8,213.5 		"/>
		<polygon clip-path="url(#SVGID_4_)" points="349.3,77.7 350.4,77.3 373.5,133.6 372.6,134 		"/>
		<polygon clip-path="url(#SVGID_4_)" points="387.9,63.6 388.8,63.3 407.1,120.8 406.2,121.1 		"/>
		<polygon clip-path="url(#SVGID_4_)" points="344.6,79.6 348.8,77.9 355.4,93.9 351.4,95.6 		"/>
		<polygon clip-path="url(#SVGID_4_)" points="368.9,70.1 371.1,69.3 399.2,147.7 397.4,148.3 		"/>
		<polygon clip-path="url(#SVGID_4_)" points="393.5,61.9 395.6,61.2 409.7,107.9 407.7,108.4 		"/>
		<polygon clip-path="url(#SVGID_4_)" points="360.2,73.4 361.6,72.9 368.7,91.4 367.3,91.9 		"/>
		<polygon clip-path="url(#SVGID_4_)" points="334.2,84.3 335.4,83.7 363.1,145.4 362,145.8 		"/>
		<polygon clip-path="url(#SVGID_4_)" points="401,59.7 405.3,58.5 419.7,110.3 416,111.3 		"/>
		<polygon clip-path="url(#SVGID_4_)" points="329.9,86.2 332.5,85.1 404,241.7 402.3,242.5 		"/>
		<polygon clip-path="url(#SVGID_4_)" points="358,74.3 360.9,73.1 414.4,212.5 412.4,213.3 		"/>
		<polygon clip-path="url(#SVGID_4_)" points="373.7,68.4 374.5,68.1 388.6,108.4 387.9,108.7 		"/>
		<polygon clip-path="url(#SVGID_4_)" points="376,67.6 376.6,67.4 393.9,117.3 393.3,117.5 		"/>
		<polygon clip-path="url(#SVGID_4_)" points="354.9,75.5 356.7,74.8 381,136.4 379.5,137 		"/>
		<polygon clip-path="url(#SVGID_4_)" points="330.3,86.1 331.6,85.5 350.2,126 349.1,126.6 		"/>
		<polygon clip-path="url(#SVGID_4_)" points="301.5,100.5 303,99.7 328.4,146.9 327.1,147.6 		"/>
		<polygon clip-path="url(#SVGID_4_)" points="370.8,69.4 376.1,67.6 402.7,144.2 398.2,145.7 		"/>
		<polygon clip-path="url(#SVGID_4_)" points="366.8,70.8 367,70.7 389,130.2 388.8,130.3 		"/>
		<polygon clip-path="url(#SVGID_4_)" points="355.5,75.2 357.3,74.6 377.3,125.6 375.8,126.2 		"/>
		<polygon clip-path="url(#SVGID_4_)" points="318,91.9 318.5,91.7 365.1,185.9 364.7,186.1 		"/>
		<polygon clip-path="url(#SVGID_4_)" points="308,97.1 309,96.5 344.8,165.1 343.9,165.5 		"/>
		<polygon clip-path="url(#SVGID_4_)" points="284.7,110.1 288.4,107.9 323.5,168 320.2,169.9 		"/>
		<polygon clip-path="url(#SVGID_4_)" points="344,79.9 346.1,79 391.8,187.7 390.3,188.4 		"/>
		<polygon clip-path="url(#SVGID_4_)" points="266.3,121.6 267.6,120.8 310.2,186.2 309.1,186.9 		"/>
		<polygon clip-path="url(#SVGID_4_)" points="272.7,117.5 273.2,117.2 404.9,325.5 404.6,325.7 		"/>
		<polygon clip-path="url(#SVGID_4_)" points="332.8,84.9 334,84.4 402.4,235.6 401.6,236 		"/>
		<polygon clip-path="url(#SVGID_4_)" points="288.9,107.6 291.1,106.4 365,234.9 363.5,235.8 		"/>
		<polygon clip-path="url(#SVGID_4_)" points="256.3,128.3 257.4,127.5 273.3,150.6 272.2,151.3 		"/>
		<polygon clip-path="url(#SVGID_4_)" points="291.9,105.9 292.7,105.4 337.1,183.4 336.4,183.8 		"/>
		<polygon clip-path="url(#SVGID_4_)" points="303.5,99.4 306.6,97.8 342.3,165.2 339.6,166.6 		"/>
		<polygon clip-path="url(#SVGID_4_)" points="282.6,111.3 284.5,110.2 326.3,180.3 324.7,181.2 		"/>
		<polygon clip-path="url(#SVGID_4_)" points="281.3,112.1 283.3,110.9 352.3,226 350.8,226.9 		"/>
		<polygon clip-path="url(#SVGID_4_)" points="301.3,100.5 302.1,100.1 391.8,265.6 391.3,265.9 		"/>
		<polygon clip-path="url(#SVGID_4_)" points="237.7,141.7 239.3,140.5 293.5,212.5 292.2,213.5 		"/>
		<polygon clip-path="url(#SVGID_4_)" points="257.1,127.7 258.2,126.9 275.9,152.9 274.9,153.6 		"/>
		<polygon clip-path="url(#SVGID_4_)" points="262.1,124.3 263,123.7 331.5,226.4 330.8,226.9 		"/>
		<polygon clip-path="url(#SVGID_4_)" points="240.3,139.7 240.5,139.5 283.9,197.4 283.7,197.6 		"/>
		<polygon clip-path="url(#SVGID_4_)" points="229.6,148.1 230.4,147.5 261.7,187.1 261,187.7 		"/>
		<polygon clip-path="url(#SVGID_4_)" points="227.3,149.9 229.7,148 295.2,230.8 293.3,232.2 		"/>
		<polygon clip-path="url(#SVGID_4_)" points="209.6,164.8 209.8,164.6 292.8,258.9 292.6,259.1 		"/>
		<polygon clip-path="url(#SVGID_4_)" points="243.2,137.6 243.4,137.5 284.2,192.9 284.1,193 		"/>
		<polygon clip-path="url(#SVGID_4_)" points="254.6,129.5 254.8,129.4 262.5,140.4 262.3,140.6 		"/>
		<polygon clip-path="url(#SVGID_4_)" points="253.4,130.3 255,129.2 279.9,165 278.4,166.1 		"/>
		<polygon clip-path="url(#SVGID_4_)" points="252.6,130.9 253.4,130.4 275.1,161.4 274.4,161.9 		"/>
		<polygon clip-path="url(#SVGID_4_)" points="211.7,163 212.8,162 279.2,238.7 278.3,239.4 		"/>
		<polygon clip-path="url(#SVGID_4_)" points="213.6,161.3 214.2,160.8 270.1,225.8 269.6,226.2 		"/>
		<polygon clip-path="url(#SVGID_4_)" points="240.1,139.9 245,136.3 292.3,201 288.2,204 		"/>
		<polygon clip-path="url(#SVGID_4_)" points="235.1,143.8 237,142.3 306.2,233.1 304.7,234.2 		"/>
		<path clip-path="url(#SVGID_4_)" d="M202.7,170.9c0,0,0.7-0.6,1.3-1.2c0.7-0.6,1.4-1.2,1.4-1.2l24.4,27.1c0,0-0.6,0.5-1.3,1.1
			c-0.6,0.6-1.2,1.1-1.2,1.1L202.7,170.9z"/>
		<polygon clip-path="url(#SVGID_4_)" points="180.2,192.9 182.1,190.9 230.3,237.8 228.6,239.6 		"/>
		<polygon clip-path="url(#SVGID_4_)" points="204.6,169.2 205.9,168 256.8,224.6 255.6,225.6 		"/>
		<polygon clip-path="url(#SVGID_4_)" points="163.4,211.2 166.3,207.9 234.7,268.7 232.4,271.5 		"/>
		<polygon clip-path="url(#SVGID_4_)" points="220.2,155.6 221.8,154.3 277.6,221.9 276.4,223 		"/>
		<polygon clip-path="url(#SVGID_4_)" points="171.4,202.2 173.5,199.9 177,203.1 174.9,205.4 		"/>
		<polygon clip-path="url(#SVGID_4_)" points="207.7,166.4 208.9,165.4 261.1,224.4 260.1,225.3 		"/>
		<polygon clip-path="url(#SVGID_4_)" points="208.7,165.6 210.7,163.8 282.2,245.4 280.5,246.8 		"/>
		<polygon clip-path="url(#SVGID_4_)" points="184,188.9 185.5,187.3 281.2,282.5 280.1,283.6 		"/>
		<polygon clip-path="url(#SVGID_4_)" points="169.9,203.7 171.2,202.4 188.5,218.2 187.3,219.5 		"/>
		<polygon clip-path="url(#SVGID_4_)" points="164.1,210.4 166,208.2 341.8,364.3 340.8,365.5 		"/>
		<polygon clip-path="url(#SVGID_4_)" points="161.8,213.1 164.3,210.2 214.8,254.6 212.7,257.1 		"/>
		<polygon clip-path="url(#SVGID_4_)" points="186.3,186.6 189.7,183.2 255.9,250.6 253.1,253.4 		"/>
		<polygon clip-path="url(#SVGID_4_)" points="178.1,195.1 178.5,194.7 195.7,211.2 195.4,211.6 		"/>
		<polygon clip-path="url(#SVGID_4_)" points="177.9,195.3 178.3,194.9 270.9,283.3 270.6,283.6 		"/>
		<polygon clip-path="url(#SVGID_4_)" points="182.4,190.6 183.6,189.4 280.3,284.6 279.5,285.5 		"/>
		<polygon clip-path="url(#SVGID_4_)" points="181.3,191.7 184.4,188.5 196.2,200.2 193.3,203.3 		"/>
		<polygon clip-path="url(#SVGID_4_)" points="1039.7,528.2 1039.8,529.4 1023.7,529.7 1023.6,528.6 		"/>
		<polygon clip-path="url(#SVGID_4_)" points="1039.2,512 1039.3,514 1035,514.2 1034.8,512.2 		"/>
		<polygon clip-path="url(#SVGID_4_)" points="1038.9,508.1 1039.1,510.8 869.4,520.6 869.2,518.8 		"/>
		<polygon clip-path="url(#SVGID_4_)" points="1037.4,488.9 1037.8,493.1 918,504.3 917.7,501.1 		"/>
		<polygon clip-path="url(#SVGID_4_)" points="1037.3,487.8 1037.5,489.6 993.1,494.1 992.9,492.4 		"/>
		<polygon clip-path="url(#SVGID_4_)" points="1038,495.6 1038.2,499 1022.6,500.3 1022.3,497 		"/>
		<polygon clip-path="url(#SVGID_4_)" points="1038.3,500.4 1038.7,504.9 982.8,508.8 982.5,504.8 		"/>
		<polygon clip-path="url(#SVGID_4_)" points="1039.4,516 1039.4,516.6 908,522.7 908,522.3 		"/>
		<polygon clip-path="url(#SVGID_4_)" points="1034.9,468.6 1035,469.5 959.4,480.2 959.3,479.5 		"/>
		<polygon clip-path="url(#SVGID_4_)" points="1035.6,474.7 1035.7,475.2 1012,478.3 1012,477.8 		"/>
		<polygon clip-path="url(#SVGID_4_)" points="1039.4,516 1039.4,517 970.6,520.2 970.6,519.3 		"/>
		<polygon clip-path="url(#SVGID_4_)" points="1040,538.7 1040,540 957.7,540 957.6,538.9 		"/>
		<polygon clip-path="url(#SVGID_4_)" points="1038.8,506.7 1038.9,508.4 974.6,512.4 974.5,510.9 		"/>
		<polygon clip-path="url(#SVGID_4_)" points="1038.3,499.7 1038.3,500.2 973.2,505.3 973.2,504.9 		"/>
		<polygon clip-path="url(#SVGID_4_)" points="1039.3,513.1 1039.3,513.9 981,516.9 980.9,516.2 		"/>
		<polygon clip-path="url(#SVGID_4_)" points="1029.7,438.7 1030.1,440.7 951.1,456.6 950.8,455 		"/>
		<polygon clip-path="url(#SVGID_4_)" points="1038,496.8 1038.2,498.8 942.3,506.7 942.2,505 		"/>
		<polygon clip-path="url(#SVGID_4_)" points="1034.1,462.9 1034.3,464.4 965.3,474.9 965.1,473.6 		"/>
		<polygon clip-path="url(#SVGID_4_)" points="1032.9,456.3 1033.1,457.5 996.2,463.6 996.1,462.5 		"/>
		<polygon clip-path="url(#SVGID_4_)" points="1037,485.6 1037.2,487 896.9,501.8 896.7,500.8 		"/>
		<polygon clip-path="url(#SVGID_4_)" points="1028,431.1 1028.1,431.8 975.9,443.3 975.7,442.7 		"/>
		<polygon clip-path="url(#SVGID_4_)" points="1034.5,466.2 1035.2,471.4 931,485.8 930.5,481.6 		"/>
		<polygon clip-path="url(#SVGID_4_)" points="1036.6,482 1037.2,487.5 941,497.6 940.4,493.2 		"/>
		<polygon clip-path="url(#SVGID_4_)" points="1029.7,438.6 1030.3,441.6 999.7,447.7 999.1,444.9 		"/>
		<polygon clip-path="url(#SVGID_4_)" points="1016.4,387.9 1016.9,389.7 971.7,403.9 971.2,402.4 		"/>
		<polygon clip-path="url(#SVGID_4_)" points="1031.1,446.4 1032.6,454.8 1025,456.1 1023.6,447.8 		"/>
		<polygon clip-path="url(#SVGID_4_)" points="1007.3,362.2 1007.4,362.4 906.6,400.8 906.6,400.6 		"/>
		<polygon clip-path="url(#SVGID_4_)" points="1027.8,430.3 1028.2,432.1 1019.6,434 1019.2,432.2 		"/>
		<polygon clip-path="url(#SVGID_4_)" points="1019.2,397.2 1019.5,398.1 1013.2,400 1012.9,399 		"/>
		<polygon clip-path="url(#SVGID_4_)" points="1017.6,391.7 1018.5,394.6 957.5,413.1 956.8,410.6 		"/>
		<polygon clip-path="url(#SVGID_4_)" points="1016.8,389.3 1017.4,391 976.1,403.9 975.6,402.3 		"/>
		<polygon clip-path="url(#SVGID_4_)" points="1015.5,385.4 1016.3,387.9 986.6,397.4 985.8,395.1 		"/>
		<polygon clip-path="url(#SVGID_4_)" points="1021.8,406.2 1024.4,415.7 874.5,454.1 872.7,447.6 		"/>
		<polygon clip-path="url(#SVGID_4_)" points="1004.1,354 1004.3,354.5 867.4,409.3 867.2,408.9 		"/>
		<polygon clip-path="url(#SVGID_4_)" points="996.4,335.9 998.7,340.9 905.9,381.2 904.1,377.3 		"/>
		<polygon clip-path="url(#SVGID_4_)" points="1003.9,353.6 1004.2,354.3 857.5,413 857.3,412.5 		"/>
		<polygon clip-path="url(#SVGID_4_)" points="1006.5,360.1 1006.6,360.4 996.8,364.2 996.7,363.9 		"/>
		<polygon clip-path="url(#SVGID_4_)" points="1005.9,358.5 1007.2,361.8 942.8,386.4 941.7,383.6 		"/>
		<polygon clip-path="url(#SVGID_4_)" points="1019.6,398.5 1020.3,401 988.2,410.3 987.5,408 		"/>
		<polygon clip-path="url(#SVGID_4_)" points="1006.7,360.5 1007.4,362.4 973.3,375.3 972.7,373.6 		"/>
		<polygon clip-path="url(#SVGID_4_)" points="992.9,328.1 993.9,330.4 936,357.2 935.1,355.2 		"/>
		<path clip-path="url(#SVGID_4_)" d="M1017.2,390.5c0,0,0.5,1.4,0.8,2.8c0.4,1.4,0.8,2.8,0.8,2.8l-88.7,26.6c0,0-0.3-1.1-0.6-2.3
			c-0.3-1.1-0.7-2.3-0.7-2.3L1017.2,390.5z"/>
		<polygon clip-path="url(#SVGID_4_)" points="1004.5,354.9 1005,356.3 982.4,365.3 981.8,363.9 		"/>
		<polygon clip-path="url(#SVGID_4_)" points="1013.1,378.1 1013.8,380.2 986.6,389.3 986,387.4 		"/>
		<polygon clip-path="url(#SVGID_4_)" points="984.3,310.6 986.1,314.2 935.5,339.9 933.9,336.7 		"/>
		<polygon clip-path="url(#SVGID_4_)" points="1001.8,348.3 1002.8,350.7 985.3,357.9 984.4,355.6 		"/>
		<polygon clip-path="url(#SVGID_4_)" points="994.6,331.8 995.8,334.5 920.5,368.5 919.5,366.3 		"/>
		<path clip-path="url(#SVGID_4_)" d="M978.7,300c0,0,0.6,1,1.2,2.1c0.5,1.1,1.1,2.1,1.1,2.1l-24.7,13.2c0,0-0.5-1-1-2
			c-0.5-1-1.1-2-1.1-2L978.7,300z"/>
		<polygon clip-path="url(#SVGID_4_)" points="980.2,302.8 982,306.2 943.9,326.3 942.4,323.3 		"/>
		<polygon clip-path="url(#SVGID_4_)" points="1010.2,369.7 1010.4,370.4 980.6,381.1 980.4,380.4 		"/>
		<polygon clip-path="url(#SVGID_4_)" points="980.8,303.9 981.2,304.7 865.6,366.4 865.3,365.8 		"/>
		<polygon clip-path="url(#SVGID_4_)" points="991.7,325.5 992.7,327.8 975,336.1 974.1,333.9 		"/>
		<polygon clip-path="url(#SVGID_4_)" points="970.9,286.5 971.5,287.4 951.5,299.1 951,298.2 		"/>
		<polygon clip-path="url(#SVGID_4_)" points="992.5,327.3 993.6,329.7 884.1,380.6 883.3,378.7 		"/>
		<polygon clip-path="url(#SVGID_4_)" points="975.1,293.6 978.1,298.9 865.8,360.8 863.5,356.9 		"/>
		<polygon clip-path="url(#SVGID_4_)" points="998.2,339.8 999.1,341.9 869.4,397.9 868.8,396.4 		"/>
		<polygon clip-path="url(#SVGID_4_)" points="970.9,286.5 971.9,288.2 919.9,318.6 919,317.1 		"/>
		<polygon clip-path="url(#SVGID_4_)" points="988.7,319.4 989.8,321.6 939.3,346.1 938.3,344.2 		"/>
		<polygon clip-path="url(#SVGID_4_)" points="961.7,271.4 965.7,277.7 772.9,396.7 770.6,393.3 		"/>
		<polygon clip-path="url(#SVGID_4_)" points="979.6,301.7 980.1,302.5 946.5,320.7 946.1,319.9 		"/>
		<polygon clip-path="url(#SVGID_4_)" points="962.1,272.1 963.5,274.3 923.3,299.6 922.1,297.6 		"/>
		<polygon clip-path="url(#SVGID_4_)" points="951.8,256.5 952.1,256.9 872.6,311.6 872.4,311.2 		"/>
		<polygon clip-path="url(#SVGID_4_)" points="949.1,252.6 950,253.9 869.4,310.2 868.7,309.1 		"/>
		<polygon clip-path="url(#SVGID_4_)" points="948.4,251.7 951.5,256 897.5,293.4 894.8,289.6 		"/>
		<polygon clip-path="url(#SVGID_4_)" points="974.4,292.4 974.8,293.2 783.1,402.2 782.9,401.8 		"/>
		<polygon clip-path="url(#SVGID_4_)" points="967.7,280.9 968.7,282.7 927,307.7 926.1,306.2 		"/>
		<polygon clip-path="url(#SVGID_4_)" points="948.2,251.4 948.6,252 892,291.9 891.7,291.4 		"/>
		<polygon clip-path="url(#SVGID_4_)" points="947.5,250.3 953.6,259 897.2,297.4 891.9,289.9 		"/>
		<polygon clip-path="url(#SVGID_4_)" points="927,223.4 927.4,224 811.6,318.6 811.2,318.2 		"/>
		<polygon clip-path="url(#SVGID_4_)" points="920.6,215.9 921.4,216.8 874.9,256.2 874.3,255.4 		"/>
		<polygon clip-path="url(#SVGID_4_)" points="945.9,248.1 946.5,248.9 897.4,284.1 896.9,283.4 		"/>
		<polygon clip-path="url(#SVGID_4_)" points="917.3,212.1 920.3,215.5 907.1,226.7 904.2,223.4 		"/>
		<polygon clip-path="url(#SVGID_4_)" points="933.9,232.1 935.3,233.9 869.5,284.9 868.3,283.4 		"/>
		<polygon clip-path="url(#SVGID_4_)" points="949.3,252.9 950.6,254.7 910.6,282.5 909.4,280.9 		"/>
		<polygon clip-path="url(#SVGID_4_)" points="928.1,224.8 929.1,226 913.6,238.5 912.7,237.3 		"/>
		<polygon clip-path="url(#SVGID_4_)" points="909.8,203.5 910.7,204.5 860.6,249.8 859.9,249 		"/>
		<polygon clip-path="url(#SVGID_4_)" points="953.8,259.3 956.2,262.9 911.5,292.8 909.3,289.5 		"/>
		<polygon clip-path="url(#SVGID_4_)" points="906.6,200.1 908.5,202.1 781.6,318.5 780.3,317.2 		"/>
		<polygon clip-path="url(#SVGID_4_)" points="926.7,223 928.6,225.4 812.6,319.4 811.3,317.7 		"/>
		<polygon clip-path="url(#SVGID_4_)" points="937,236.1 937.5,236.8 903.6,262.7 903.1,262.1 		"/>
		<polygon clip-path="url(#SVGID_4_)" points="938.5,238 938.9,238.6 896.8,270.4 896.4,269.9 		"/>
		<polygon clip-path="url(#SVGID_4_)" points="924.6,220.5 925.8,221.9 874.7,264.1 873.6,262.8 		"/>
		<polygon clip-path="url(#SVGID_4_)" points="906.9,200.4 907.8,201.4 875,231.6 874.2,230.7 		"/>
		<polygon clip-path="url(#SVGID_4_)" points="884.3,177.5 885.5,178.7 848.4,217.5 847.3,216.5 		"/>
		<polygon clip-path="url(#SVGID_4_)" points="935.1,233.7 938.5,238.1 873.9,287.1 871,283.4 		"/>
		<polygon clip-path="url(#SVGID_4_)" points="932.5,230.4 932.7,230.6 882.9,269.8 882.8,269.7 		"/>
		<polygon clip-path="url(#SVGID_4_)" points="925,221 926.2,222.4 883.8,257.3 882.8,256 		"/>
		<polygon clip-path="url(#SVGID_4_)" points="897.5,190.5 897.9,190.9 822.6,264.3 822.3,264 		"/>
		<polygon clip-path="url(#SVGID_4_)" points="889.5,182.6 890.4,183.4 836.2,238.5 835.5,237.8 		"/>
		<polygon clip-path="url(#SVGID_4_)" points="870,164.5 873.3,167.3 826.9,219.2 824.1,216.8 		"/>
		<polygon clip-path="url(#SVGID_4_)" points="916.9,211.6 918.3,213.3 829.1,290.4 828,289.1 		"/>
		<polygon clip-path="url(#SVGID_4_)" points="853.5,150.5 854.7,151.5 805.5,212.2 804.4,211.4 		"/>
		<polygon clip-path="url(#SVGID_4_)" points="859.4,155.3 859.8,155.7 702.1,345.1 701.8,344.9 		"/>
		<polygon clip-path="url(#SVGID_4_)" points="908.8,202.4 909.6,203.3 786.9,315.1 786.4,314.5 		"/>
		<polygon clip-path="url(#SVGID_4_)" points="873.7,167.7 875.6,169.4 776.1,279.3 774.7,278.1 		"/>
		<polygon clip-path="url(#SVGID_4_)" points="844,143.1 845.1,144 828,166.2 827,165.3 		"/>
		<polygon clip-path="url(#SVGID_4_)" points="876.3,170 877,170.6 816.5,236.9 815.9,236.3 		"/>
		<polygon clip-path="url(#SVGID_4_)" points="885.9,179.1 888.5,181.6 835.3,236.3 833.1,234.2 		"/>
		<polygon clip-path="url(#SVGID_4_)" points="868.2,162.9 869.9,164.4 816,225.7 814.6,224.5 		"/>
		<polygon clip-path="url(#SVGID_4_)" points="867,161.9 868.8,163.4 780.5,264.5 779.2,263.4 		"/>
		<polygon clip-path="url(#SVGID_4_)" points="884.2,177.5 884.8,178 755,314.3 754.6,313.9 		"/>
		<polygon clip-path="url(#SVGID_4_)" points="825.5,129.6 827.1,130.7 775.3,204.5 774,203.5 		"/>
		<polygon clip-path="url(#SVGID_4_)" points="844.8,143.7 845.9,144.6 826.6,169.4 825.7,168.6 		"/>
		<polygon clip-path="url(#SVGID_4_)" points="849.5,147.4 850.4,148.1 773.7,244.9 773,244.3 		"/>
		<polygon clip-path="url(#SVGID_4_)" points="828.2,131.5 828.4,131.6 786.6,190.7 786.4,190.5 		"/>
		<polygon clip-path="url(#SVGID_4_)" points="817,123.8 817.8,124.3 789.7,166.3 789,165.8 		"/>
		<polygon clip-path="url(#SVGID_4_)" points="814.5,122.1 817.1,123.8 758.5,211.6 756.5,210.3 		"/>
		<polygon clip-path="url(#SVGID_4_)" points="794.9,109.9 795.1,110 731,218 730.8,217.9 		"/>
		<polygon clip-path="url(#SVGID_4_)" points="831.1,133.6 831.2,133.7 791.1,189.6 791,189.5 		"/>
		<polygon clip-path="url(#SVGID_4_)" points="842.4,141.8 842.6,142 834.4,152.7 834.2,152.6 		"/>
		<polygon clip-path="url(#SVGID_4_)" points="841.2,140.9 842.8,142.1 816.3,176.8 814.9,175.7 		"/>
		<polygon clip-path="url(#SVGID_4_)" points="840.4,140.3 841.2,140.9 818.3,171.1 817.6,170.6 		"/>
		<polygon clip-path="url(#SVGID_4_)" points="797.3,111.3 798.6,112 746.1,198.7 745.1,198.2 		"/>
		<polygon clip-path="url(#SVGID_4_)" points="799.5,112.5 800.1,112.9 755.5,186.1 754.9,185.8 		"/>
		<polygon clip-path="url(#SVGID_4_)" points="828,131.3 832.9,134.8 785.9,199.8 781.8,196.8 		"/>
		<polygon clip-path="url(#SVGID_4_)" points="822.7,127.6 824.7,129 759.7,222.8 758.1,221.7 		"/>
		<polygon clip-path="url(#SVGID_4_)" points="786.9,105.2 790,107 771.7,138.7 768.8,137 		"/>
		<polygon clip-path="url(#SVGID_4_)" points="759.1,90.5 761.6,91.7 731.7,152 729.6,151 		"/>
		<polygon clip-path="url(#SVGID_4_)" points="789.1,106.5 790.7,107.4 752.5,173.2 751.2,172.5 		"/>
		<polygon clip-path="url(#SVGID_4_)" points="736.4,80.1 740.4,81.9 703.7,165.8 700.4,164.3 		"/>
		<polygon clip-path="url(#SVGID_4_)" points="806.9,117.2 808.6,118.4 761.4,192.3 760,191.4 		"/>
		<polygon clip-path="url(#SVGID_4_)" points="747.4,85.1 750.3,86.4 748.3,90.6 745.5,89.4 		"/>
		<polygon clip-path="url(#SVGID_4_)" points="792.7,108.6 794.1,109.4 754,177.2 752.9,176.6 		"/>
		<polygon clip-path="url(#SVGID_4_)" points="793.8,109.2 796.2,110.6 740.6,203.7 738.7,202.6 		"/>
		<polygon clip-path="url(#SVGID_4_)" points="764,93 765.9,94 704.9,214.3 703.5,213.5 		"/>
		<polygon clip-path="url(#SVGID_4_)" points="745.5,84.2 747.2,84.9 737.4,106.3 735.8,105.6 		"/>
		<polygon clip-path="url(#SVGID_4_)" points="737.3,80.5 740,81.7 645.9,297.1 644.5,296.5 		"/>
		<polygon clip-path="url(#SVGID_4_)" points="734.1,79.1 737.6,80.6 711,142.5 708,141.1 		"/>
		<polygon clip-path="url(#SVGID_4_)" points="766.9,94.5 771.2,96.7 727.4,180.4 724,178.6 		"/>
		<polygon clip-path="url(#SVGID_4_)" points="756.3,89.1 756.8,89.3 746.4,110.9 746,110.7 		"/>
		<polygon clip-path="url(#SVGID_4_)" points="756,89 756.6,89.3 701.1,204.6 700.7,204.4 		"/>
		<polygon clip-path="url(#SVGID_4_)" points="761.9,91.9 763.4,92.7 702.7,214.1 701.6,213.6 		"/>
		<polygon clip-path="url(#SVGID_4_)" points="760.5,91.2 764.4,93.2 757,108.1 753.1,106.2 		"/>
		<path clip-path="url(#SVGID_4_)" d="M822.3,624.3l-59.6-206.4l26.7-207.1l-13.1-17.9L609.4,330.4L535,318.3l-74.4,12.1
			L293.8,192.9l-13.1,17.9l26.7,207.1l-59.6,206.4L347,745.7l1.7-43.5l39.5,80.3l6-45.5l38.1,180.2l75.9,26.6l19-30.8v0l0,0H543
			l19,30.8l75.9-26.6L675.9,737l6,45.5l39.5-80.3l1.7,43.5L822.3,624.3z M688.2,733.6L675.9,706l-58.4,186.4l-49.7,31.4L548,908
			l39.6-39.7l-52.6-3.7l-52.6,3.7l39.6,39.7l-19.7,15.8l-49.7-31.4L394.2,706l-12.3,27.6L333,636.1l-4.8,64.3l-80.4-76.1l92.9-204.2
			l-44.9-208.6l147,154.3l92.2-36.7l92.3,36.7l147-154.3l-39.5,208.6l87.5,204.2l-80.4,76.1l-4.8-64.3L688.2,733.6z"/>
		<polygon clip-path="url(#SVGID_4_)" points="714.6,562.6 625.6,590 598,720.4 639.2,603 656.3,613.6 		"/>
		<polygon clip-path="url(#SVGID_4_)" points="380.4,562.6 469.4,590 497,720.4 455.8,603 438.7,613.6 		"/>
		<polygon clip-path="url(#SVGID_4_)" points="672.9,390.7 731.7,301.3 705.3,411.4 		"/>
		<polygon clip-path="url(#SVGID_4_)" points="413,389.9 340,297 372.8,411.4 		"/>
	</g>
</g>
</svg>
